<?xml version="1.0" encoding="UTF-8" standalone="no"?>
<!-- Created with Inkscape (http://www.inkscape.org/) -->

<svg
   xmlns:dc="http://purl.org/dc/elements/1.1/"
   xmlns:cc="http://creativecommons.org/ns#"
   xmlns:rdf="http://www.w3.org/1999/02/22-rdf-syntax-ns#"
   xmlns:svg="http://www.w3.org/2000/svg"
   xmlns="http://www.w3.org/2000/svg"
   xmlns:sodipodi="http://sodipodi.sourceforge.net/DTD/sodipodi-0.dtd"
   xmlns:inkscape="http://www.inkscape.org/namespaces/inkscape"
   width="345.51404"
   height="197.15399"
   id="svg2"
   version="1.1"
   inkscape:version="0.48.4 r9939"
   sodipodi:docname="arbitrary_plate.svg">
  <defs
     id="defs4" />
  <sodipodi:namedview
     id="base"
     pagecolor="#ffffff"
     bordercolor="#666666"
     borderopacity="1.0"
     inkscape:pageopacity="0.0"
     inkscape:pageshadow="2"
     inkscape:zoom="0.98994949"
     inkscape:cx="-49.989562"
     inkscape:cy="105.83742"
     inkscape:document-units="px"
     inkscape:current-layer="layer1"
     showgrid="true"
     inkscape:snap-global="false"
     inkscape:window-width="1366"
     inkscape:window-height="706"
     inkscape:window-x="-8"
     inkscape:window-y="-8"
     inkscape:window-maximized="1"
     fit-margin-top="0"
     fit-margin-left="0"
     fit-margin-right="0"
     fit-margin-bottom="0">
    <inkscape:grid
       type="xygrid"
       id="grid2985"
       empspacing="5"
       visible="true"
       enabled="true"
       snapvisiblegridlinesonly="true"
       originx="-206.54535px"
       originy="-10.101562px" />
  </sodipodi:namedview>
  <metadata
     id="metadata7">
    <rdf:RDF>
      <cc:Work
         rdf:about="">
        <dc:format>image/svg+xml</dc:format>
        <dc:type
           rdf:resource="http://purl.org/dc/dcmitype/StillImage" />
        <dc:title></dc:title>
      </cc:Work>
    </rdf:RDF>
  </metadata>
  <g
     inkscape:label="Ebene 1"
     inkscape:groupmode="layer"
     id="layer1"
     transform="translate(-206.54535,-845.10663)">
    <path
       style="fill:none;stroke:#000000;stroke-width:1px;stroke-linecap:butt;stroke-linejoin:miter;stroke-opacity:1"
       d="m 340,872.36218 c -0.19625,-0.94587 -1.53461,-2.64136 -0.58874,-2.83761 0.94587,-0.19625 1.55475,2.83761 0.58874,2.83761 -1.80994,0 -2.96465,-2.12723 -4.62935,-2.83761 -0.6194,-0.26431 -1.34688,0 -2.02031,0 -1.01015,0 -2.03046,0.14286 -3.03046,0 -1.37437,-0.19634 -2.66624,-0.81381 -4.04061,-1.01015 -1,-0.14286 -2.0203,0 -3.03046,0 -2.35702,0 -4.71404,0 -7.07106,0 -4.71405,0 -9.42809,0 -14.14214,0 -1.34687,0 -2.70198,-0.14874 -4.04061,0 -5.16552,0.57395 -10.2689,2.41281 -15.15229,4.04061 -7.48948,2.4965 -4.15615,1.06792 -10.10152,4.04061 -1.34687,0.67343 -2.81526,1.14505 -4.04061,2.0203 -1.16248,0.83035 -2.02031,2.02031 -3.03046,3.03046 -1.34687,1.01015 -2.63978,2.09657 -4.04061,3.03046 -2.88542,1.92361 -6.57476,3.5443 -9.09137,6.06092 -1.71693,1.71692 -2.48618,4.19559 -4.04061,6.06091 -0.91455,1.09746 -2.39158,1.75271 -3.03046,3.03046 -0.45176,0.90351 0.27751,2.05917 0,3.03046 -0.41369,1.4479 -1.40872,2.66455 -2.02031,4.04061 -0.73644,1.65699 -1.34687,3.36717 -2.0203,5.05076 -0.67344,1.68359 -1.34687,3.36717 -2.02031,5.05076 -0.67343,1.68359 -1.5432,3.30138 -2.0203,5.05076 -0.53891,1.97601 -0.5134,4.0739 -1.01015,6.06092 -1.41146,5.64581 -2.53127,5.62055 -3.03046,11.11168 -0.18291,2.01201 0.16778,4.04759 0,6.06091 -1.28693,15.44319 -1.01015,-2.33437 -1.01015,11.11168 0,5.05076 0,10.10153 0,15.15229 0,0.67343 0,1.34687 0,2.0203 0,1.01016 -0.27751,2.05918 0,3.03046 0.41368,1.44791 1.42712,2.65652 2.0203,4.04061 0.11531,0.26907 1.97254,5.99724 2.02031,6.06092 0.45175,0.60234 1.4879,0.47775 2.0203,1.01015 0.5324,0.5324 0.5584,1.41797 1.01015,2.0203 0.85715,1.14286 2.02031,2.02031 3.03046,3.03046 0.67344,0.67344 1.34687,1.34687 2.02031,2.02031 0.67343,0.67343 1.2584,1.44887 2.0203,2.0203 0.60234,0.45176 1.37468,0.62278 2.02031,1.01016 1.04104,0.62462 1.94457,1.47736 3.03045,2.0203 0.95238,0.47615 2.05176,0.59075 3.03046,1.01015 1.38409,0.5932 2.63064,1.4916 4.04061,2.0203 1.29993,0.4875 2.74069,0.5227 4.04061,1.0102 1.40997,0.5287 2.65652,1.4271 4.04061,2.0203 0.9787,0.4194 2.02031,0.6734 3.03046,1.0101 2.0203,0.6735 3.99491,1.5038 6.06091,2.0203 1.98702,0.4968 4.0739,0.5134 6.06092,1.0102 0.18913,0.047 12.03328,4.027 12.12183,4.0406 2.32962,0.3584 4.71405,0 7.07107,0 2.35702,0 4.71404,0 7.07107,0 8.75465,0 17.50931,0 26.26396,0 26.60069,0 53.20137,0 79.80205,0 22.66571,0 -5.5502,0.74 15.15229,-2.0203 2.67011,-0.356 5.39345,0.1792 8.08122,0 0.87385,-0.058 11.79776,-1.6868 13.13199,-2.0203 2.066,-0.5165 4.01326,-1.4353 6.06091,-2.0203 7.55906,-2.1598 15.84827,-3.4234 23.23351,-6.0609 2.41497,-0.8625 4.67763,-2.10995 7.07107,-3.0305 1.98764,-0.76448 4.15615,-1.06793 6.06091,-2.02031 2.17176,-1.08588 3.9293,-2.8779 6.06092,-4.04061 1.59187,-0.86829 3.42891,-1.20938 5.05076,-2.0203 1.92361,-0.96181 7.3995,-4.36904 9.09137,-6.06092 0.0264,-0.0264 5.99539,-8.00258 6.06092,-8.08122 1.91673,-2.30007 2.71838,-1.96557 4.04061,-5.05076 2.34091,-5.46212 0.22015,-2.33104 1.01015,-7.07107 0.17505,-1.05031 0.80133,-1.98634 1.01015,-3.03046 0.13208,-0.66035 0,-1.34687 0,-2.0203 0,-1.01015 0,-2.02031 0,-3.03046 0,-3.70389 0,-7.40778 0,-11.11168 0,-4.37732 0,-8.75465 0,-13.13198 0,-1.01015 0,-2.02031 0,-3.03046 0,-0.67343 0.21296,-1.38143 0,-2.0203 -0.47619,-1.42857 -1.49156,-2.63065 -2.0203,-4.04061 -0.48747,-1.29993 -0.52268,-2.74069 -1.01015,-4.04061 -0.52874,-1.40997 -1.42713,-2.65652 -2.02031,-4.04061 -0.41944,-0.9787 -0.53396,-2.07808 -1.01015,-3.03046 -1.40637,-2.81274 -2.81671,-3.82686 -5.05076,-6.06092 -1.01016,-1.01015 -1.94581,-2.10075 -3.03046,-3.03045 -8.58109,-7.35522 0.87983,1.90301 -9.09137,-7.07107 -1.76975,-1.59278 -3.19156,-3.5634 -5.05077,-5.05076 -3.15088,-2.52071 -7.70865,-4.07582 -11.11168,-6.06092 -2.09734,-1.22345 -3.96357,-2.81716 -6.06091,-4.04061 -2.14785,-1.25291 -11.0312,-5.46069 -13.13198,-6.06092 -2.28935,-0.65409 -4.73636,-0.5432 -7.07107,-1.01015 -29.01924,-5.80385 10.97404,1.55789 -15.15229,-4.04061 -2.3281,-0.49888 -4.73635,-0.54321 -7.07107,-1.01015 -2.72272,-0.54455 -5.38748,-1.34687 -8.08122,-2.02031 -2.69374,-0.67343 -5.38748,-1.34687 -8.08122,-2.0203 -2.69374,-0.67344 -5.35213,-1.5086 -8.08122,-2.02031 -13.46788,-2.52522 -2.84964,-0.0691 -14.14213,-1.01015 -2.0411,-0.17009 -4.02291,-0.80635 -6.06092,-1.01015 -1.34019,-0.13402 -2.69374,0 -4.04061,0 -3.70389,0 -7.40779,0 -11.11168,0 -3.70389,0 -7.40778,0 -11.11168,0 -0.84589,0 -4.28257,-0.19205 -5.05076,0 -0.73044,0.18261 -1.30602,0.77206 -2.0203,1.01015 -0.63888,0.21296 -1.34687,0 -2.02031,0 -2.28217,0 0.45176,-0.15058 -3.03046,1.01015 -1.18449,0.39483 -2.92817,-0.55621 -4.04061,0 -0.30117,0.15059 0,0.67344 0,1.01016 -0.67343,0.33671 -1.30602,0.77205 -2.0203,1.01015 -0.31944,0.10648 -0.77206,-0.2381 -1.01015,0 0,2.69374 0.33671,-0.33672 -1.01016,1.01015 -0.23809,0.2381 0.2381,0.77206 0,1.01015 -0.23809,0.2381 -0.77205,-0.23809 -1.01015,0 -0.47619,0.47619 0.47619,1.54412 0,2.02031 -0.23809,0.23809 -0.77206,-0.2381 -1.01015,0 -0.47619,0.47619 0.56826,1.65892 0,2.0203 -1.35623,0.86249 -4.46202,3.43471 -4.46202,1.82746 0,-1.76262 2.97468,-1.89174 0,0 z"
       id="path2987"
       inkscape:connector-curvature="0" />
    <path
       sodipodi:type="arc"
       style="fill:#000000;fill-opacity:1;stroke:#000000;stroke-width:1;stroke-miterlimit:4;stroke-opacity:1;stroke-dasharray:none;stroke-dashoffset:0"
       id="path2989"
       sodipodi:cx="231.83"
       sodipodi:cy="952.35706"
       sodipodi:rx="5.5558391"
       sodipodi:ry="5.0507627"
       d="m 237.38584,952.35706 c 0,2.78945 -2.48743,5.05076 -5.55584,5.05076 -3.0684,0 -5.55584,-2.26131 -5.55584,-5.05076 0,-2.78946 2.48744,-5.05077 5.55584,-5.05077 3.06841,0 5.55584,2.26131 5.55584,5.05077 z" />
    <path
       sodipodi:type="arc"
       style="fill:#000000;fill-opacity:1;stroke:#000000;stroke-width:1;stroke-miterlimit:4;stroke-opacity:1;stroke-dasharray:none;stroke-dashoffset:0"
       id="path2991"
       sodipodi:cx="342.44171"
       sodipodi:cy="871.54486"
       sodipodi:rx="5.0507627"
       sodipodi:ry="5.0507627"
       d="m 347.49247,871.54486 c 0,2.78946 -2.2613,5.05076 -5.05076,5.05076 -2.78946,0 -5.05076,-2.2613 -5.05076,-5.05076 0,-2.78946 2.2613,-5.05076 5.05076,-5.05076 2.78946,0 5.05076,2.2613 5.05076,5.05076 z" />
    <path
       sodipodi:type="arc"
       style="fill:#000000;fill-opacity:1;stroke:#000000;stroke-width:1;stroke-miterlimit:4;stroke-opacity:1;stroke-dasharray:none;stroke-dashoffset:0"
       id="path2993"
       sodipodi:cx="383.35291"
       sodipodi:cy="1014.9865"
       sodipodi:rx="4.5456862"
       sodipodi:ry="5.0507627"
       d="m 387.89859,1014.9865 c 0,2.7895 -2.03517,5.0508 -4.54568,5.0508 -2.51052,0 -4.54569,-2.2613 -4.54569,-5.0508 0,-2.7894 2.03517,-5.0508 4.54569,-5.0508 2.51051,0 4.54568,2.2614 4.54568,5.0508 z" />
    <path
       sodipodi:type="arc"
       style="fill:#000000;fill-opacity:1;stroke:#000000;stroke-width:1;stroke-miterlimit:4;stroke-opacity:1;stroke-dasharray:none;stroke-dashoffset:0"
       id="path2995"
       sodipodi:cx="525.2793"
       sodipodi:cy="939.73016"
       sodipodi:rx="6.0609155"
       sodipodi:ry="4.5456862"
       d="m 531.34021,939.73016 c 0,2.51052 -2.71356,4.54569 -6.06091,4.54569 -3.34735,0 -6.06092,-2.03517 -6.06092,-4.54569 0,-2.51051 2.71357,-4.54568 6.06092,-4.54568 3.34735,0 6.06091,2.03517 6.06091,4.54568 z" />
    <text
       xml:space="preserve"
       style="font-size:20px;font-style:normal;font-weight:normal;line-height:125%;letter-spacing:0px;word-spacing:0px;fill:#000000;fill-opacity:1;stroke:none;font-family:Sans"
       x="205.06097"
       y="958.41803"
       id="text2997"
       sodipodi:linespacing="125%"><tspan
         sodipodi:role="line"
         id="tspan2999"
         x="205.06097"
         y="958.41803">M</tspan></text>
    <text
       xml:space="preserve"
       style="font-size:20px;font-style:normal;font-weight:normal;line-height:125%;letter-spacing:0px;word-spacing:0px;fill:#000000;fill-opacity:1;stroke:none;font-family:Sans"
       x="378.80722"
       y="1042.2606"
       id="text3001"
       sodipodi:linespacing="125%"><tspan
         sodipodi:role="line"
         id="tspan3003"
         x="378.80722"
         y="1042.2606">N</tspan></text>
    <text
       xml:space="preserve"
       style="font-size:20px;font-style:normal;font-weight:normal;line-height:125%;letter-spacing:0px;word-spacing:0px;fill:#000000;fill-opacity:1;stroke:none;font-family:Sans"
       x="537.40118"
       y="946.29614"
       id="text3005"
       sodipodi:linespacing="125%"><tspan
         sodipodi:role="line"
         id="tspan3007"
         x="537.40118"
         y="946.29614">O</tspan></text>
    <text
       xml:space="preserve"
       style="font-size:20px;font-style:normal;font-weight:normal;line-height:125%;letter-spacing:0px;word-spacing:0px;fill:#000000;fill-opacity:1;stroke:none;font-family:Sans"
       x="333.35034"
       y="859.42303"
       id="text3009"
       sodipodi:linespacing="125%"><tspan
         sodipodi:role="line"
         id="tspan3011"
         x="333.35034"
         y="859.42303">P</tspan></text>
  </g>
</svg>
