<?xml version="1.0" encoding="UTF-8" standalone="no"?>
<!-- Created with Inkscape (http://www.inkscape.org/) -->

<svg
   xmlns:dc="http://purl.org/dc/elements/1.1/"
   xmlns:cc="http://creativecommons.org/ns#"
   xmlns:rdf="http://www.w3.org/1999/02/22-rdf-syntax-ns#"
   xmlns:svg="http://www.w3.org/2000/svg"
   xmlns="http://www.w3.org/2000/svg"
   xmlns:sodipodi="http://sodipodi.sourceforge.net/DTD/sodipodi-0.dtd"
   xmlns:inkscape="http://www.inkscape.org/namespaces/inkscape"
   width="345.51404"
   height="197.15399"
   id="svg2"
   version="1.1"
   inkscape:version="0.48.4 r9939"
   sodipodi:docname="arbitrary_plate.pdf">
  <defs
     id="defs4" />
  <sodipodi:namedview
     id="base"
     pagecolor="#ffffff"
     bordercolor="#666666"
     borderopacity="1.0"
     inkscape:pageopacity="0.0"
     inkscape:pageshadow="2"
     inkscape:zoom="1.979899"
     inkscape:cx="163.92366"
     inkscape:cy="105.83742"
     inkscape:document-units="px"
     inkscape:current-layer="layer1"
     showgrid="true"
     inkscape:snap-global="false"
     inkscape:window-width="1366"
     inkscape:window-height="706"
     inkscape:window-x="-8"
     inkscape:window-y="-8"
     inkscape:window-maximized="1"
     fit-margin-top="0"
     fit-margin-left="0"
     fit-margin-right="0"
     fit-margin-bottom="0">
    <inkscape:grid
       type="xygrid"
       id="grid2985"
       empspacing="5"
       visible="true"
       enabled="true"
       snapvisiblegridlinesonly="true"
       originx="-206.54535px"
       originy="-10.101562px" />
  </sodipodi:namedview>
  <metadata
     id="metadata7">
    <rdf:RDF>
      <cc:Work
         rdf:about="">
        <dc:format>image/svg+xml</dc:format>
        <dc:type
           rdf:resource="http://purl.org/dc/dcmitype/StillImage" />
        <dc:title></dc:title>
      </cc:Work>
    </rdf:RDF>
  </metadata>
  <g
     inkscape:label="Ebene 1"
     inkscape:groupmode="layer"
     id="layer1"
     transform="translate(-206.54535,-845.10663)">
    <path
       style="fill:none;stroke:#000000;stroke-width:1px;stroke-linecap:butt;stroke-linejoin:miter;stroke-opacity:1"
       d="m 340,872.36218 c -0.19625,-0.94587 -1.53461,-2.64136 -0.58874,-2.83761 0.94587,-0.19625 1.55475,2.83761 0.58874,2.83761 -1.80994,0 -2.96465,-2.12723 -4.62935,-2.83761 -0.6194,-0.26431 -1.34688,0 -2.02031,0 -1.01015,0 -2.03046,0.14286 -3.03046,0 -1.37437,-0.19634 -2.66624,-0.81381 -4.04061,-1.01015 -1,-0.14286 -2.0203,0 -3.03046,0 -2.35702,0 -4.71404,0 -7.07106,0 -4.71405,0 -9.42809,0 -14.14214,0 -1.34687,0 -2.70198,-0.14874 -4.04061,0 -5.16552,0.57395 -10.2689,2.41281 -15.15229,4.04061 -7.48948,2.4965 -4.15615,1.06792 -10.10152,4.04061 -1.34687,0.67343 -2.81526,1.14505 -4.04061,2.0203 -1.16248,0.83035 -2.02031,2.02031 -3.03046,3.03046 -1.34687,1.01015 -2.63978,2.09657 -4.04061,3.03046 -2.88542,1.92361 -6.57476,3.5443 -9.09137,6.06092 -1.71693,1.71692 -2.48618,4.19559 -4.04061,6.06091 -0.91455,1.09746 -2.39158,1.75271 -3.03046,3.03046 -0.45176,0.90351 0.27751,2.05917 0,3.03046 -0.41369,1.4479 -1.40872,2.66455 -2.02031,4.04061 -0.73644,1.65699 -1.34687,3.36717 -2.0203,5.05076 -0.67344,1.68359 -1.34687,3.36717 -2.02031,5.05076 -0.67343,1.68359 -1.5432,3.30138 -2.0203,5.05076 -0.53891,1.97601 -0.5134,4.0739 -1.01015,6.06092 -1.41146,5.64581 -2.53127,5.62055 -3.03046,11.11168 -0.18291,2.01201 0.16778,4.04759 0,6.06091 -1.28693,15.44319 -1.01015,-2.33437 -1.01015,11.11168 0,5.05076 0,10.10153 0,15.15229 0,0.67343 0,1.34687 0,2.0203 0,1.01016 -0.27751,2.05918 0,3.03046 0.41368,1.44791 1.42712,2.65652 2.0203,4.04061 0.11531,0.26907 1.97254,5.99724 2.02031,6.06092 0.45175,0.60234 1.4879,0.47775 2.0203,1.01015 0.5324,0.5324 0.5584,1.41797 1.01015,2.0203 0.85715,1.14286 2.02031,2.02031 3.03046,3.03046 0.67344,0.67344 1.34687,1.34687 2.02031,2.02031 0.67343,0.67343 1.2584,1.44887 2.0203,2.0203 0.60234,0.45176 1.37468,0.62278 2.02031,1.01016 1.04104,0.62462 1.94457,1.47736 3.03045,2.0203 0.95238,0.47615 2.05176,0.59075 3.03046,1.01015 1.38409,0.5932 2.63064,1.4916 4.04061,2.0203 1.29993,0.4875 2.74069,0.5227 4.04061,1.0102 1.40997,0.5287 2.65652,1.4271 4.04061,2.0203 0.9787,0.4194 2.02031,0.6734 3.03046,1.0101 2.0203,0.6735 3.99491,1.5038 6.06091,2.0203 1.98702,0.4968 4.0739,0.5134 6.06092,1.0102 0.18913,0.047 12.03328,4.027 12.12183,4.0406 2.32962,0.3584 4.71405,0 7.07107,0 2.35702,0 4.71404,0 7.07107,0 8.75465,0 17.50931,0 26.26396,0 26.60069,0 53.20137,0 79.80205,0 22.66571,0 -5.5502,0.74 15.15229,-2.0203 2.67011,-0.356 5.39345,0.1792 8.08122,0 0.87385,-0.058 11.79776,-1.6868 13.13199,-2.0203 2.066,-0.5165 4.01326,-1.4353 6.06091,-2.0203 7.55906,-2.1598 15.84827,-3.4234 23.23351,-6.0609 2.41497,-0.8625 4.67763,-2.10995 7.07107,-3.0305 1.98764,-0.76448 4.15615,-1.06793 6.06091,-2.02031 2.17176,-1.08588 3.9293,-2.8779 6.06092,-4.04061 1.59187,-0.86829 3.42891,-1.20938 5.05076,-2.0203 1.92361,-0.96181 7.3995,-4.36904 9.09137,-6.06092 0.0264,-0.0264 5.99539,-8.00258 6.06092,-8.08122 1.91673,-2.30007 2.71838,-1.96557 4.04061,-5.05076 2.34091,-5.46212 0.22015,-2.33104 1.01015,-7.07107 0.17505,-1.05031 0.80133,-1.98634 1.01015,-3.03046 0.13208,-0.66035 0,-1.34687 0,-2.0203 0,-1.01015 0,-2.02031 0,-3.03046 0,-3.70389 0,-7.40778 0,-11.11168 0,-4.37732 0,-8.75465 0,-13.13198 0,-1.01015 0,-2.02031 0,-3.03046 0,-0.67343 0.21296,-1.38143 0,-2.0203 -0.47619,-1.42857 -1.49156,-2.63065 -2.0203,-4.04061 -0.48747,-1.29993 -0.52268,-2.74069 -1.01015,-4.04061 -0.52874,-1.40997 -1.42713,-2.65652 -2.02031,-4.04061 -0.41944,-0.9787 -0.53396,-2.07808 -1.01015,-3.03046 -1.40637,-2.81274 -2.81671,-3.82686 -5.05076,-6.06092 -1.01016,-1.01015 -1.94581,-2.10075 -3.03046,-3.03045 -8.58109,-7.35522 0.87983,1.90301 -9.09137,-7.07107 -1.76975,-1.59278 -3.19156,-3.5634 -5.05077,-5.05076 -3.15088,-2.52071 -7.70865,-4.07582 -11.11168,-6.06092 -2.09734,-1.22345 -3.96357,-2.81716 -6.06091,-4.04061 -2.14785,-1.25291 -11.0312,-5.46069 -13.13198,-6.06092 -2.28935,-0.65409 -4.73636,-0.5432 -7.07107,-1.01015 -29.01924,-5.80385 10.97404,1.55789 -15.15229,-4.04061 -2.3281,-0.49888 -4.73635,-0.54321 -7.07107,-1.01015 -2.72272,-0.54455 -5.38748,-1.34687 -8.08122,-2.02031 -2.69374,-0.67343 -5.38748,-1.34687 -8.08122,-2.0203 -2.69374,-0.67344 -5.35213,-1.5086 -8.08122,-2.02031 -13.46788,-2.52522 -2.84964,-0.0691 -14.14213,-1.01015 -2.0411,-0.17009 -4.02291,-0.80635 -6.06092,-1.01015 -1.34019,-0.13402 -2.69374,0 -4.04061,0 -3.70389,0 -7.40779,0 -11.11168,0 -3.70389,0 -7.40778,0 -11.11168,0 -0.84589,0 -4.28257,-0.19205 -5.05076,0 -0.73044,0.18261 -1.30602,0.77206 -2.0203,1.01015 -0.63888,0.21296 -1.34687,0 -2.02031,0 -2.28217,0 0.45176,-0.15058 -3.03046,1.01015 -1.18449,0.39483 -2.92817,-0.55621 -4.04061,0 -0.30117,0.15059 0,0.67344 0,1.01016 -0.67343,0.33671 -1.30602,0.77205 -2.0203,1.01015 -0.31944,0.10648 -0.77206,-0.2381 -1.01015,0 0,2.69374 0.33671,-0.33672 -1.01016,1.01015 -0.23809,0.2381 0.2381,0.77206 0,1.01015 -0.23809,0.2381 -0.77205,-0.23809 -1.01015,0 -0.47619,0.47619 0.47619,1.54412 0,2.02031 -0.23809,0.23809 -0.77206,-0.2381 -1.01015,0 -0.47619,0.47619 0.56826,1.65892 0,2.0203 -1.35623,0.86249 -4.46202,3.43471 -4.46202,1.82746 0,-1.76262 2.97468,-1.89174 0,0 z"
       id="path2987"
       inkscape:connector-curvature="0" />
    <path
       sodipodi:type="arc"
       style="fill:#000000;fill-opacity:1;stroke:#000000;stroke-width:1;stroke-miterlimit:4;stroke-opacity:1;stroke-dasharray:none;stroke-dashoffset:0"
       id="path2989"
       sodipodi:cx="231.83"
       sodipodi:cy="952.35706"
       sodipodi:rx="5.5558391"
       sodipodi:ry="5.0507627"
       d="m 237.38584,952.35706 c 0,2.78945 -2.48743,5.05076 -5.55584,5.05076 -3.0684,0 -5.55584,-2.26131 -5.55584,-5.05076 0,-2.78946 2.48744,-5.05077 5.55584,-5.05077 3.06841,0 5.55584,2.26131 5.55584,5.05077 z" />
    <path
       sodipodi:type="arc"
       style="fill:#000000;fill-opacity:1;stroke:#000000;stroke-width:1;stroke-miterlimit:4;stroke-opacity:1;stroke-dasharray:none;stroke-dashoffset:0"
       id="path2991"
       sodipodi:cx="342.44171"
       sodipodi:cy="871.54486"
       sodipodi:rx="5.0507627"
       sodipodi:ry="5.0507627"
       d="m 347.49247,871.54486 c 0,2.78946 -2.2613,5.05076 -5.05076,5.05076 -2.78946,0 -5.05076,-2.2613 -5.05076,-5.05076 0,-2.78946 2.2613,-5.05076 5.05076,-5.05076 2.78946,0 5.05076,2.2613 5.05076,5.05076 z" />
    <path
       sodipodi:type="arc"
       style="fill:#000000;fill-opacity:1;stroke:#000000;stroke-width:1;stroke-miterlimit:4;stroke-opacity:1;stroke-dasharray:none;stroke-dashoffset:0"
       id="path2993"
       sodipodi:cx="383.35291"
       sodipodi:cy="1014.9865"
       sodipodi:rx="4.5456862"
       sodipodi:ry="5.0507627"
       d="m 387.89859,1014.9865 a 4.5456862,5.0507627 0 1 1 -9.09137,0 4.5456862,5.0507627 0 1 1 9.09137,0 z"
       transform="translate(63.63961,-5.0507627)" />
    <path
       sodipodi:type="arc"
       style="fill:#000000;fill-opacity:1;stroke:#000000;stroke-width:1;stroke-miterlimit:4;stroke-opacity:1;stroke-dasharray:none;stroke-dashoffset:0"
       id="path2995"
       sodipodi:cx="525.2793"
       sodipodi:cy="939.73016"
       sodipodi:rx="6.0609155"
       sodipodi:ry="4.5456862"
       d="m 531.34021,939.73016 c 0,2.51052 -2.71356,4.54569 -6.06091,4.54569 -3.34735,0 -6.06092,-2.03517 -6.06092,-4.54569 0,-2.51051 2.71357,-4.54568 6.06092,-4.54568 3.34735,0 6.06091,2.03517 6.06091,4.54568 z" />
    <text
       xml:space="preserve"
       style="font-size:20px;font-style:normal;font-weight:normal;line-height:125%;letter-spacing:0px;word-spacing:0px;fill:#000000;fill-opacity:1;stroke:none;font-family:Sans"
       x="205.06097"
       y="958.41803"
       id="text2997"
       sodipodi:linespacing="125%"><tspan
         sodipodi:role="line"
         id="tspan2999"
         x="205.06097"
         y="958.41803">M</tspan></text>
    <text
       xml:space="preserve"
       style="font-size:20px;font-style:normal;font-weight:normal;line-height:125%;letter-spacing:0px;word-spacing:0px;fill:#000000;fill-opacity:1;stroke:none;font-family:Sans"
       x="442.44684"
       y="1037.2098"
       id="text3001"
       sodipodi:linespacing="125%"><tspan
         sodipodi:role="line"
         id="tspan3003"
         x="442.44684"
         y="1037.2098">N</tspan></text>
    <text
       xml:space="preserve"
       style="font-size:20px;font-style:normal;font-weight:normal;line-height:125%;letter-spacing:0px;word-spacing:0px;fill:#000000;fill-opacity:1;stroke:none;font-family:Sans"
       x="537.40118"
       y="946.29614"
       id="text3005"
       sodipodi:linespacing="125%"><tspan
         sodipodi:role="line"
         id="tspan3007"
         x="537.40118"
         y="946.29614">O</tspan></text>
    <text
       xml:space="preserve"
       style="font-size:20px;font-style:normal;font-weight:normal;line-height:125%;letter-spacing:0px;word-spacing:0px;fill:#000000;fill-opacity:1;stroke:none;font-family:Sans"
       x="333.35034"
       y="859.42303"
       id="text3009"
       sodipodi:linespacing="125%"><tspan
         sodipodi:role="line"
         id="tspan3011"
         x="333.35034"
         y="859.42303">P</tspan></text>
    <path
       sodipodi:type="arc"
       style="fill:#000000;fill-opacity:1;stroke:#000000;stroke-width:1;stroke-miterlimit:4;stroke-opacity:1;stroke-dasharray:none;stroke-dashoffset:0"
       id="path2993-1"
       sodipodi:cx="383.35291"
       sodipodi:cy="1014.9865"
       sodipodi:rx="4.5456862"
       sodipodi:ry="5.0507627"
       d="m 387.89859,1014.9865 a 4.5456862,5.0507627 0 1 1 -9.09137,0 4.5456862,5.0507627 0 1 1 9.09137,0 z"
       transform="translate(-40.022345,-1.7702621)" />
    <text
       xml:space="preserve"
       style="font-size:20px;font-style:normal;font-weight:normal;line-height:125%;letter-spacing:0px;word-spacing:0px;fill:#000000;fill-opacity:1;stroke:none;font-family:Sans"
       x="338.78488"
       y="1040.4902"
       id="text3001-7"
       sodipodi:linespacing="125%"><tspan
         sodipodi:role="line"
         id="tspan3003-4"
         x="338.78488"
         y="1040.4902">N'</tspan></text>
    <path
       style="fill:none;stroke:#000000;stroke-width:1px;stroke-linecap:butt;stroke-linejoin:miter;stroke-opacity:1"
       d="m 136.37059,31.488974 c 0,2.357023 0,4.714045 0,7.071068 0,0.336718 -0.23809,0.772057 0,1.010153 0.2381,0.238095 0.77206,-0.238096 1.01016,0 0.23809,0.238095 0,0.673435 0,1.010152 0,1.683588 0,3.367175 0,5.050763 0,0.336717 -0.2381,0.772057 0,1.010152 0.23809,0.238096 0.77205,-0.238095 1.01015,0 0.0406,0.04065 0,3.669646 0,4.040611 0,3.703892 0,7.407785 0,11.111678 0,0.910515 -0.21193,4.414973 0,5.050762 0.23809,0.714286 0.77206,1.30602 1.01015,2.020305 0.13103,0.393074 -0.15676,2.873696 0,3.030458 0.2381,0.238095 0.77206,-0.238095 1.01015,0 0.2381,0.238095 0,0.673435 0,1.010153 0,0.336717 0,0.673435 0,1.010152 0,2.020305 0,4.04061 0,6.060915 0,0.336718 0,0.673435 0,1.010153 0,0.336717 -0.15058,0.708983 0,1.010153 0.21296,0.425917 0.7972,0.584234 1.01016,1.010152 0.15058,0.301169 0,0.673435 0,1.010153 0,0.336717 0,0.673435 0,1.010152 0,3.030458 0,6.060915 0,9.091373 0,0.52823 -0.13281,3.774999 0,4.04061 0.21296,0.425918 0.79719,0.584235 1.01015,1.010153 0.15371,0.307424 0,2.575525 0,3.030455 0,2.35703 0,4.71405 0,7.07107 0,5.7242 0,11.4484 0,17.17259 0,6.06092 0,12.12183 0,18.18275 0,0.24499 0.0325,2.99797 0,3.03046 -0.2381,0.23809 -0.77206,-0.2381 -1.01015,0 -0.2381,0.23809 0,0.67343 0,1.01015 0,0.33672 0,0.67343 0,1.01015 0,0.97871 0.20077,5.45859 0,6.06092 -0.2381,0.71428 -0.77206,1.30602 -1.01016,2.0203 -0.2316,0.69482 0.29801,2.43445 0,3.03046 -0.21296,0.42592 -0.79719,0.58423 -1.01015,1.01015 -0.32275,0.64551 0.27102,3.22754 0,4.04061 -0.23809,0.71429 -0.77206,1.30602 -1.01015,2.02031 -0.18998,0.56992 0,2.36668 0,3.03046"
       id="path3805"
       inkscape:connector-curvature="0"
       transform="translate(206.54535,845.10663)" />
    <path
       style="fill:none;stroke:#000000;stroke-width:3;stroke-linecap:butt;stroke-linejoin:miter;stroke-opacity:1;stroke-miterlimit:4;stroke-dasharray:none"
       d="m 197.48482,168.86972 c -6.56599,-6.56599 -6.56599,-6.56599 -6.56599,-6.56599"
       id="path3817"
       inkscape:connector-curvature="0"
       transform="translate(206.54535,845.10663)" />
    <path
       style="fill:none;stroke:#000000;stroke-width:3;stroke-linecap:butt;stroke-linejoin:miter;stroke-miterlimit:4;stroke-opacity:1;stroke-dasharray:none"
       d="m 398.47433,1020.0373 5.05076,-6.566"
       id="path3819"
       inkscape:connector-curvature="0" />
    <path
       style="fill:none;stroke:#000000;stroke-width:3;stroke-linecap:butt;stroke-linejoin:miter;stroke-opacity:1;stroke-miterlimit:4;stroke-dasharray:none"
       d="m 147.48227,101.1895 -5.05076,8.08122 -6.06092,-8.08122"
       id="path3821"
       inkscape:connector-curvature="0"
       transform="translate(206.54535,845.10663)" />
    <text
       xml:space="preserve"
       style="font-size:20px;font-style:normal;font-weight:normal;line-height:125%;letter-spacing:0px;word-spacing:0px;fill:#000000;fill-opacity:1;stroke:none;font-family:Sans"
       x="157.07872"
       y="104.21996"
       id="text3823"
       sodipodi:linespacing="125%"
       transform="translate(206.54535,845.10663)"><tspan
         sodipodi:role="line"
         id="tspan3825"
         x="157.07872"
         y="104.21996">ds</tspan></text>
    <path
       style="fill:none;stroke:#000000;stroke-width:3;stroke-linecap:butt;stroke-linejoin:miter;stroke-opacity:1;stroke-miterlimit:4;stroke-dasharray:none"
       d="m 138.3909,57.75294 16.16244,0.505077"
       id="path3827"
       inkscape:connector-curvature="0"
       transform="translate(206.54535,845.10663)" />
    <path
       style="fill:none;stroke:#000000;stroke-width:3;stroke-linecap:butt;stroke-linejoin:miter;stroke-opacity:1;stroke-miterlimit:4;stroke-dasharray:none"
       d="m 150.00765,52.197101 3.03046,5.050763 -4.04061,5.555839"
       id="path3829"
       inkscape:connector-curvature="0"
       transform="translate(206.54535,845.10663)" />
    <path
       style="fill:none;stroke:#000000;stroke-width:1px;stroke-linecap:butt;stroke-linejoin:miter;stroke-opacity:1"
       d="m 25.253814,106.74534 c 1.248648,3.4373 1.473601,0.48426 2.525381,1.01015 0.425918,0.21296 0.584235,0.7972 1.010153,1.01015 0.301169,0.15059 0.772057,-0.23809 1.010152,0 0.119048,0.11905 -0.119048,0.38603 0,0.50508 0.238095,0.2381 0.708983,-0.15058 1.010153,0 0.212959,0.10648 0.279199,0.42978 0.505076,0.50508 2.299251,0 0.02889,-0.2381 1.515229,0.50507 0.150584,0.0753 0.386028,-0.11904 0.505076,0 0.119048,0.11905 -0.119048,0.38603 0,0.50508 0.103256,0.10326 1.31497,-0.10013 1.515229,0 0.212959,0.10648 0.292117,0.3986 0.505076,0.50508 0.150585,0.0753 0.354492,-0.0753 0.505076,0 0.425918,0.21295 0.584235,0.79719 1.010153,1.01015 0.200259,0.10013 1.411973,-0.10326 1.515229,0 0.119047,0.11905 -0.119048,0.38603 0,0.50507 0.119047,0.11905 0.336717,0 0.505076,0 0.168359,0 0.336718,0 0.505076,0 0.122495,0 1.498986,-0.0162 1.515229,0 0.119048,0.11905 -0.119048,0.38603 0,0.50508 0.119048,0.11905 0.336718,0 0.505076,0 0.168359,0 0.336718,0 0.505077,0 2.525381,0 5.050762,0 7.576144,0 0.227465,0 1.361517,0.0769 1.515229,0 0.212958,-0.10648 0.279199,-0.42978 0.505076,-0.50508 0.319438,-0.10648 0.683488,0.0817 1.010152,0 0.365222,-0.0913 0.644932,-0.41377 1.010153,-0.50507 0.397301,-0.0993 2.505216,0 3.030458,0 0.168358,0 0.336717,0 0.505076,0 0.168359,0 0.354491,0.0753 0.505076,0 0.212959,-0.10648 0.279199,-0.42979 0.505076,-0.50508 0.467075,-0.15569 2.697697,0.16638 3.030458,0 0.212959,-0.10648 0.279199,-0.42978 0.505076,-0.50507 0.319439,-0.10648 0.673435,0 1.010153,0 0.168359,0 0.354491,0.0753 0.505076,0 0.212959,-0.10648 0.292118,-0.3986 0.505076,-0.50508 0.320379,-0.16019 2.197272,0.16405 2.525382,0 0.212959,-0.10648 0.292117,-0.3986 0.505076,-0.50508 0.317452,-0.15872 1.702853,0.15873 2.020305,0 0.212959,-0.10648 0.292118,-0.39859 0.505076,-0.50507 0.317452,-0.15873 1.702854,0.15872 2.020305,0 0.212959,-0.10648 0.2792,-0.42979 0.505077,-0.50508 0.231015,-0.077 1.795557,0.11237 2.020305,0 0.212959,-0.10648 0.292117,-0.3986 0.505076,-0.50508 0.150585,-0.0753 0.354492,0.0753 0.505076,0 0.143579,-0.0718 0.866574,-0.93836 1.010153,-1.01015 0.153712,-0.0768 1.287764,0 1.515229,0 1.141086,0 -0.225877,0.0753 1.515229,-0.50507 0.448221,-0.14941 2.194649,0.16536 2.525381,0 0.212959,-0.10648 0.292117,-0.3986 0.505076,-0.50508 0.30117,-0.15059 0.708983,0.15058 1.010153,0 0.212959,-0.10648 0.292117,-0.3986 0.505076,-0.50508 0.150585,-0.0753 0.336718,0 0.505076,0 0.168359,0 0.336718,0 0.505077,0 0.841793,0 1.683587,0 2.525381,0 2.69374,0 5.38748,0 8.08122,0 1.515229,0 3.030458,0 4.545687,0 0.264115,0 1.887504,-0.0664 2.020304,0 0.21296,0.10648 0.29212,0.3986 0.50508,0.50508 0.15058,0.0753 0.33671,0 0.50507,0 0.16836,0 0.33672,0 0.50508,0 0.5966,0 2.73011,-0.10012 3.03046,0 0.22587,0.0753 0.29211,0.3986 0.50507,0.50508 0.28999,0.14499 2.62379,-0.13556 3.03046,0 0.22588,0.0753 0.29212,0.39859 0.50508,0.50507 0.32139,0.1607 2.08871,-0.14555 2.52538,0 0.35714,0.11905 0.64493,0.41377 1.01015,0.50508 0.38409,0.096 2.10244,0 2.52538,0 0.33672,0 0.69072,-0.10648 1.01016,0 0.22587,0.0753 0.29211,0.39859 0.50507,0.50507 0.15059,0.0753 0.34536,-0.0532 0.50508,0 0.35714,0.11905 0.64493,0.41377 1.01015,0.50508 0.72707,0.18177 1.75449,-0.11013 2.52538,0 1.0138,0.14483 2.01667,0.36025 3.03046,0.50508 0.16667,0.0238 0.34536,-0.0532 0.50508,0 0.35714,0.11904 0.65301,0.38603 1.01015,0.50507 0.15972,0.0532 0.33672,0 0.50507,0 0.28192,0 2.29418,-0.0771 2.52539,0 0.22587,0.0753 0.29211,0.3986 0.50507,0.50508 0.15059,0.0753 0.35449,-0.0753 0.50508,0 0.21296,0.10648 0.2792,0.42978 0.50507,0.50508 0.63888,0.21295 1.38143,-0.21296 2.02031,0 0.22588,0.0753 0.2792,0.42978 0.50508,0.50507 0.31943,0.10648 0.68348,-0.0817 1.01015,0 0.36522,0.0913 0.64493,0.41377 1.01015,0.50508 0.32667,0.0817 0.69072,-0.10648 1.01015,0 0.22588,0.0753 0.2792,0.42978 0.50508,0.50507 0.62728,0.2091 1.8613,-0.16602 2.52538,0 2.62265,0.65567 -0.53919,0.50508 2.02031,0.50508 0.34876,0 1.86674,-0.0768 2.0203,0 0.21296,0.10648 0.29212,0.3986 0.50508,0.50508 0.298,0.149 1.16782,-0.11581 1.51523,0 0.71428,0.23809 1.28986,0.82754 2.0203,1.01015 0.45093,0.11273 1.94074,0 2.52538,0 0.16836,0 0.34536,-0.0532 0.50508,0 0.35714,0.11905 0.64493,0.41377 1.01015,0.50508 0.32667,0.0817 0.67344,0 1.01015,0 0.16836,0 0.3545,-0.0753 0.50508,0 0.21296,0.10647 0.29212,0.39859 0.50508,0.50507 0.15058,0.0753 0.33671,0 0.50507,0 0.21756,0 2.89379,-0.0683 3.03046,0 0.21296,0.10648 0.2792,0.42979 0.50508,0.50508 0.47915,0.15972 1.01015,0 1.51523,0 1.01015,0 2.0203,0 3.03045,0 0.33672,0 0.67344,0 1.01016,0 0.33671,0 0.68348,-0.0817 1.01015,0 0.36522,0.0913 0.65301,0.38603 1.01015,0.50507 0.43268,0.14423 1.57472,-0.11139 2.02031,0 0.36522,0.0913 0.64493,0.41378 1.01015,0.50508 0.32666,0.0817 0.67343,0 1.01015,0 0.8418,0 1.68359,0 2.52538,0 0.16836,0 0.35449,-0.0753 0.50508,0 0.21296,0.10648 0.2792,0.42978 0.50508,0.50508 0.31943,0.10648 0.67343,0 1.01015,0 1.17851,0 2.35702,0 3.53553,0 0.33672,0 0.67344,0 1.01015,0 0.16836,0 0.34536,-0.0532 0.50508,0 0.35714,0.11904 0.64493,0.41377 1.01015,0.50507 0.32667,0.0817 0.67344,0 1.01016,0 0.33671,0 0.67343,0 1.01015,0 1.01015,0 2.0203,0 3.03046,0 0.16835,0 0.34535,-0.0532 0.50507,0 0.35715,0.11905 0.64493,0.41377 1.01015,0.50508 0.87694,0.21923 2.15353,-0.21923 3.03046,0 0.36522,0.0913 0.64493,0.41377 1.01015,0.50508 0.32667,0.0817 0.67344,0 1.01016,0 1.34687,0 2.69374,0 4.04061,0 0.50507,0 1.01996,-0.0991 1.51523,0 0.36915,0.0738 0.64493,0.41377 1.01015,0.50507 0.81666,0.20417 1.69504,-0.13839 2.52538,0 0.52515,0.0875 0.99317,0.40067 1.51523,0.50508 0.33018,0.066 0.67343,0 1.01015,0 1.34687,0 2.69374,0 4.04061,0 0.33672,0 0.67998,-0.066 1.01015,0 3.32398,0.66479 -0.27852,0.50507 3.03046,0.50507 2.52538,0 5.05076,0 7.57615,0 0.32891,0 2.45253,0 2.52538,0 0.33672,0 0.67801,-0.0553 1.01015,0 0.68472,0.11412 1.33312,0.40691 2.02031,0.50508 0.5,0.0714 1.01015,0 1.51522,0 0.50508,0 1.01016,0 1.51523,0 0.33672,0 0.68349,-0.0817 1.01016,0 0.36522,0.0913 0.641,0.43125 1.01015,0.50508 0.49527,0.099 1.01015,0 1.51523,0 1.17851,0 2.35702,0 3.53553,0 3.36718,0 6.73435,0 10.10153,0 3.19881,0 6.39763,0 9.59645,0 1.34687,0 2.69374,0 4.04061,0 0.50507,0 1.02523,0.1225 1.51522,0 0.36523,-0.0913 0.65301,-0.38603 1.01016,-0.50508 0.43666,-0.14555 2.20399,0.1607 2.52538,0 0.21296,-0.10648 0.29212,-0.3986 0.50507,-0.50508 0.15059,-0.0753 0.33672,0 0.50508,0 0.16836,0 0.33672,0 0.50508,0 0.67343,0 1.34687,0 2.0203,0 0.33672,0 0.67344,0 1.01015,0 0.16836,0 0.3545,0.0753 0.50508,0 0.21296,-0.10647 0.29212,-0.39859 0.50508,-0.50507 0.25668,-0.12834 2.61293,0.10438 3.03045,0 0.36523,-0.0913 0.64494,-0.41377 1.01016,-0.50508 0.32666,-0.0817 0.67343,0 1.01015,0 1.01015,0 2.02031,0 3.03046,0 0.33672,0 0.69071,0.10648 1.01015,0 0.22588,-0.0753 0.29212,-0.39859 0.50508,-0.50507 0.32275,-0.16138 1.61377,0.13551 2.0203,0 0.35714,-0.11905 0.64493,-0.41378 1.01015,-0.50508 0.32667,-0.0817 0.67344,0 1.01016,0 0.16836,0 0.35449,0.0753 0.50507,0 0.21296,-0.10648 0.29212,-0.3986 0.50508,-0.50508 0.298,-0.149 1.16782,0.11581 1.51523,0 0.35714,-0.11904 0.66061,-0.36526 1.01015,-0.50507 0.49432,-0.19773 1.02091,-0.30735 1.51523,-0.50508 0.34954,-0.13981 0.65301,-0.38603 1.01015,-0.50508 0.15972,-0.0532 0.35449,0.0753 0.50508,0 0.21296,-0.10648 0.29212,-0.39859 0.50507,-0.50507 0.40407,-0.20203 1.11117,0.20203 1.51523,0 0.21296,-0.10648 0.29212,-0.3986 0.50508,-0.50508 0.30117,-0.15058 0.70898,0.15059 1.01015,0 0.21296,-0.10648 0.29212,-0.3986 0.50508,-0.50507 0.15058,-0.0753 0.34536,0.0532 0.50507,0 0.35715,-0.11905 0.65301,-0.38603 1.01016,-0.50508 0.31944,-0.10648 0.69071,0.10648 1.01015,0 0.35714,-0.11905 0.65301,-0.38603 1.01015,-0.50508 0.15972,-0.0532 0.35449,0.0753 0.50508,0 0.21296,-0.10648 0.29212,-0.39859 0.50507,-0.50507 0.40407,-0.20203 1.11117,0.20203 1.51523,0 0.21296,-0.10648 0.29212,-0.3986 0.50508,-0.50508 0.15058,-0.0753 0.35449,0.0753 0.50508,0 0.21295,-0.10648 0.29211,-0.3986 0.50507,-0.50508 0.20026,-0.10013 1.41198,0.10326 1.51523,0 0.11905,-0.11904 -0.11905,-0.38602 0,-0.50507 0.10326,-0.10326 1.31497,0.10013 1.51523,0 0.21296,-0.10648 0.29212,-0.3986 0.50508,-0.50508 0.30117,-0.15058 0.70898,0.15059 1.01015,0 0.42592,-0.21296 0.58423,-0.79719 1.01015,-1.01015 0.30117,-0.15059 0.77206,0.23809 1.01015,0 0.2662,-0.2662 0.23888,-0.74395 0.50508,-1.01015 0.2381,-0.2381 0.70898,0.15058 1.01015,0 0.21296,-0.10648 0.2792,-0.42979 0.50508,-0.50508 0.31944,-0.10648 0.70898,0.15058 1.01015,0 0.30117,-0.15058 -0.30117,-0.85957 0,-1.01015 0.30117,-0.15059 0.70898,0.15058 1.01015,0 0.15059,-0.0753 -0.11904,-0.38603 0,-0.50508 0.11905,-0.11905 0.3545,0.0753 0.50508,0 2.10201,-1.051 -0.53994,0.0349 0.50508,-1.01015 0.11904,-0.11905 0.35449,0.0753 0.50507,0 0.13411,-0.067 1.44818,-1.38113 1.51523,-1.51523 0.15059,-0.30117 -0.23809,-0.77206 0,-1.01015 0.11905,-0.11905 0.38603,0.11905 0.50508,0 0.11905,-0.11905 -0.11905,-0.38603 0,-0.50508 0.11905,-0.11905 0.38603,0.11905 0.50507,0 0.11905,-0.11905 -0.11904,-0.38603 0,-0.50508 0.2662,-0.26619 0.74396,-0.23887 1.01016,-0.50507 1.97118,-1.97118 -0.11692,-0.27125 0.50507,-1.51523 0.10648,-0.21296 0.3986,-0.29212 0.50508,-0.50508 0.15058,-0.30117 -0.2381,-0.772054 0,-1.010149 0.11905,-0.119048 0.38603,0.119048 0.50508,0 0.23809,-0.238095 -0.2381,-0.772057 0,-1.010153 0.67343,-0.673435 0.50507,0.841794 0.50507,-0.505076 0,-0.168359 0,-0.336717 0,-0.505076 0,-0.168359 -0.0753,-0.354492 0,-0.505076 0.10648,-0.212959 0.3986,-0.292118 0.50508,-0.505077 0.15058,-0.301169 -0.15059,-0.708983 0,-1.010152 0.10648,-0.212959 0.3986,-0.292118 0.50507,-0.505076 0.10013,-0.200259 -0.10325,-1.411973 0,-1.515229 0.11905,-0.119048 0.33672,0 0.50508,0 -0.84179,0 -1.68359,0 -2.52538,0 -0.16836,0 -0.38603,-0.119048 -0.50508,0 -0.11904,0.119047 0.11905,0.386028 0,0.505076 -0.11904,0.119048 -0.38603,-0.119048 -0.50507,0 -0.11905,0.119048 0.11904,0.386029 0,0.505076 -0.11905,0.119048 -0.38603,-0.119047 -0.50508,0 -0.25254,0.252538 0.25254,1.262691 0,1.515229 -0.11905,0.119048 -0.38603,-0.119048 -0.50508,0 -0.25253,0.252538 0.25254,1.262691 0,1.515229 -0.11904,0.119048 -0.38602,-0.119048 -0.50507,0 -0.11905,0.119048 0.0753,0.354492 0,0.505076 -0.21296,0.425918 -0.7972,0.584235 -1.01015,1.010153 -0.20204,0.404061 0.20203,1.111165 0,1.515225 -0.10648,0.21296 -0.3986,0.29212 -0.50508,0.50508 -0.0753,0.15058 0.11905,0.38603 0,0.50508 -0.11905,0.11904 -0.38603,-0.11905 -0.50508,0 -0.10325,0.10325 0.10013,1.31497 0,1.51522 -0.10648,0.21296 -0.39859,0.29212 -0.50507,0.50508 -0.15059,0.30117 0.15058,0.70898 0,1.01015 -0.30305,0.6061 -1.21219,0.90914 -1.51523,1.51523 -0.15059,0.30117 0.23809,0.77206 0,1.01016 -0.11905,0.11904 -0.38603,-0.11905 -0.50508,0 -0.11072,0.11072 0.1158,1.34153 0,1.51522 -0.39621,0.59433 -1.01015,1.01016 -1.51523,1.51523 -0.16836,0.16836 -0.39859,0.29212 -0.50507,0.50508 -0.0753,0.15058 0.15058,0.42978 0,0.50508 -0.30117,0.15058 -0.77206,-0.2381 -1.01016,0 -0.25253,0.25253 0.25254,1.26269 0,1.51522 -0.23809,0.2381 -0.77205,-0.23809 -1.01015,0 -0.11905,0.11905 0.0753,0.3545 0,0.50508 -1.15577,2.31154 0.20934,-2.14325 -1.01015,1.51523 -0.10648,0.31944 0.23809,0.77206 0,1.01015 -0.2662,0.2662 -0.69692,0.29625 -1.01015,0.50508 -0.39622,0.26414 -0.58424,0.79719 -1.01016,1.01015 -0.15058,0.0753 -0.35449,-0.0753 -0.50507,0 -1.11675,0.55838 -0.15674,0.31347 -0.50508,1.01015 -0.10648,0.21296 -0.33672,0.33672 -0.50508,0.50508 -0.29705,0.29706 -1.90336,1.78641 -2.0203,2.0203 -0.0753,0.15059 0,0.33672 0,0.50508 -0.16836,0 -0.38603,-0.11905 -0.50508,0 -0.26619,0.2662 -0.23887,0.74395 -0.50507,1.01015 -0.2662,0.2662 -0.65301,0.38603 -1.01016,0.50508 -0.15971,0.0532 -0.38602,-0.11905 -0.50507,0 -0.11905,0.11905 0.11905,0.38603 0,0.50508 -0.11905,0.11904 -0.38603,-0.11905 -0.50508,0 -0.11905,0.11904 0.11905,0.38602 0,0.50507 -0.11905,0.11905 -0.35449,-0.0753 -0.50507,0 -0.21296,0.10648 -0.29212,0.3986 -0.50508,0.50508 -0.15058,0.0753 -0.35449,-0.0753 -0.50508,0 -0.42591,0.21296 -0.58423,0.79719 -1.01015,1.01015 -0.15058,0.0753 -0.35449,-0.0753 -0.50508,0 -0.60609,0.30305 -0.90913,1.21218 -1.51522,1.51523 -0.47619,0.23809 -1.26088,-0.60769 -1.51523,0.50508 -0.19811,0.13207 -0.33672,0.33671 -0.50508,0.50507 -0.16836,0.16836 -0.3986,0.29212 -0.50508,0.50508 -0.0753,0.15058 0.11905,0.38603 0,0.50507 -0.23809,0.2381 -0.70898,-0.15058 -1.01015,0 -2.102,1.05101 0.53995,-0.0349 -0.50507,1.01016 -0.11905,0.11905 -0.3545,-0.0753 -0.50508,0 -0.21296,0.10648 -0.29212,0.39859 -0.50508,0.50507 -0.30117,0.15059 -0.77205,-0.23809 -1.01015,0 -0.2662,0.2662 -0.19184,0.80133 -0.50508,1.01016 -1.51522,1.01015 -0.50507,-0.50508 -1.51522,0 -0.42592,0.21296 -0.58424,0.79719 -1.01016,1.01015 -0.15058,0.0753 -0.35449,-0.0753 -0.50507,0 -0.42592,0.21296 -0.58424,0.79719 -1.01016,1.01015 -0.15058,0.0753 -0.38602,-0.11905 -0.50507,0 -0.11905,0.11905 0.11905,0.38603 0,0.50508 -0.2381,0.23809 -0.70899,-0.15059 -1.01015,0 -0.21296,0.10648 -0.29212,0.39859 -0.50508,0.50507 -0.15059,0.0753 -0.35449,-0.0753 -0.50508,0 -0.21296,0.10648 -0.29211,0.3986 -0.50507,0.50508 -0.30117,0.15058 -0.70899,-0.15058 -1.01016,0 -0.21296,0.10648 -0.29211,0.3986 -0.50507,0.50508 -0.15059,0.0753 -0.34536,-0.0532 -0.50508,0 -0.35714,0.11904 -0.65301,0.38603 -1.01015,0.50507 -0.19654,0.0655 -1.43685,-0.0784 -1.51523,0 -0.11905,0.11905 0.11905,0.38603 0,0.50508 -0.12154,0.12154 -1.89877,-0.12154 -2.02031,0 -0.11904,0.11905 0.11905,0.38603 0,0.50508 -0.15639,0.15639 -2.36898,-0.1564 -2.52538,0 -0.11904,0.11904 0.11905,0.38602 0,0.50507 -0.0624,0.0624 -1.70357,0 -2.0203,0 -0.33672,0 -0.69072,-0.10648 -1.01015,0 -0.35715,0.11905 -0.65301,0.38603 -1.01016,0.50508 -0.15972,0.0532 -0.33671,0 -0.50507,0 -0.4757,0 -2.23807,-0.0958 -2.52538,0 -0.22588,0.0753 -0.29212,0.39859 -0.50508,0.50507 -0.31864,0.15932 -2.20674,-0.15931 -2.52538,0 -0.21296,0.10648 -0.29212,0.3986 -0.50508,0.50508 -0.298,0.149 -1.16782,-0.1158 -1.51523,0 -0.35714,0.11905 -0.64493,0.41377 -1.01015,0.50508 -0.32666,0.0817 -0.67343,0 -1.01015,0 -0.67344,0 -1.34687,0 -2.02031,0 -0.16836,0 -0.34535,-0.0532 -0.50507,0 -0.35715,0.11904 -0.65301,0.38603 -1.01016,0.50507 -0.31943,0.10648 -0.67343,0 -1.01015,0 -1.17851,0 -2.35702,0 -3.53553,0 -0.33672,0 -0.68349,-0.0817 -1.01016,0 -0.36522,0.0913 -0.653,0.38603 -1.01015,0.50508 -0.30814,0.10271 -2.64037,0 -3.03046,0 -0.16835,0 -0.33671,0 -0.50507,0 -0.16836,0 -0.35449,-0.0753 -0.50508,0 -0.21296,0.10648 -0.29212,0.3986 -0.50507,0.50508 -0.1498,0.0749 -2.54194,0 -3.03046,0 -2.18867,0 -4.37733,0 -6.56599,0 -2.18867,0 -4.37733,0 -6.56599,0 -0.53992,0 -2.98858,0.10939 -3.53554,0 -0.52206,-0.10442 -0.99317,-0.40067 -1.51523,-0.50508 -0.66035,-0.13207 -1.34687,0 -2.0203,0 -1.17851,0 -2.35703,0 -3.53554,0 -0.33671,0 -0.67343,0 -1.01015,0 -0.33672,0 -0.69071,0.10648 -1.01015,0 -0.22588,-0.0753 -0.2792,-0.42978 -0.50508,-0.50508 -0.47916,-0.15972 -1.01015,0 -1.51523,0 -1.01015,0 -2.0203,0 -3.03045,0 -1.34687,0 -2.69374,0 -4.04061,0 -0.33672,0 -0.67344,0 -1.01016,0 -0.16836,0 -0.35449,0.0753 -0.50507,0 -0.21296,-0.10648 -0.29212,-0.39859 -0.50508,-0.50507 -0.15371,-0.0769 -1.28776,0 -1.51523,0 -1.34687,0 -2.69374,0 -4.04061,0 -0.42762,0 -1.74877,0.0905 -2.0203,0 -0.22588,-0.0753 -0.2792,-0.42979 -0.50508,-0.50508 -0.31944,-0.10648 -0.67344,0 -1.01015,0 -0.8418,0 -1.68359,0 -2.52538,0 -0.33672,0 -0.67344,0 -1.01016,0 -0.16836,0 -0.34535,0.0532 -0.50507,0 -0.35715,-0.11905 -0.641,-0.43125 -1.01016,-0.50508 -0.49526,-0.0991 -1.01015,0 -1.51522,0 -0.16836,0 -0.34536,0.0532 -0.50508,0 -0.35714,-0.11904 -0.64493,-0.41377 -1.01015,-0.50507 -0.32667,-0.0817 -0.67344,0 -1.01016,0 -1.01015,0 -2.0203,0 -3.03045,0 -0.33672,0 -0.67344,0 -1.01016,0 -0.16835,0 -0.34174,0.0408 -0.50507,0 -0.5165,-0.12913 -0.99317,-0.40067 -1.51523,-0.50508 -0.7996,-0.15992 -2.27436,0.18903 -3.03046,0 -0.36522,-0.0913 -0.641,-0.43124 -1.01015,-0.50507 -0.49527,-0.0991 -1.01015,0 -1.51523,0 -0.33672,0 -0.69071,0.10647 -1.01015,0 -0.22588,-0.0753 -0.2792,-0.42979 -0.50508,-0.50508 -0.31944,-0.10648 -0.67343,0 -1.01015,0 -0.73044,0 -3.00218,0.10667 -3.53554,0 -0.36915,-0.0738 -0.653,-0.38603 -1.01015,-0.50508 -0.15972,-0.0532 -0.33672,0 -0.50507,0 -0.50508,0 -1.01996,0.0991 -1.51523,0 -0.36915,-0.0738 -0.641,-0.43124 -1.01016,-0.50507 -0.49526,-0.0991 -1.01015,0 -1.51522,0 -1.01016,0 -2.02031,0 -3.03046,0 -0.33672,0 -0.68349,0.0817 -1.01015,0 -0.36523,-0.0913 -0.65301,-0.38603 -1.01016,-0.50508 -0.15972,-0.0532 -0.33671,0 -0.50507,0 -0.41351,0 -2.19814,0.10908 -2.52538,0 -0.35715,-0.11905 -0.64494,-0.41377 -1.01016,-0.50508 -2.77323,-0.6933 0.8413,0.92573 -2.0203,-0.50507 -0.31944,-0.10648 -0.67344,0 -1.01015,0 -0.51566,0 -3.29016,0.0818 -3.53554,0 -0.22588,-0.0753 -0.2792,-0.42979 -0.50507,-0.50508 -0.31944,-0.10648 -0.67344,0 -1.01016,0 -1.17851,0 -2.35702,0 -3.53553,0 -0.33672,0 -0.68349,0.0817 -1.01015,0 -0.36523,-0.0913 -0.65301,-0.38603 -1.01016,-0.50507 -0.15972,-0.0532 -0.33671,0 -0.50507,0 -0.52524,0 -2.63316,0.0993 -3.03046,0 -0.36522,-0.0913 -0.65301,-0.38603 -1.01015,-0.50508 -0.15972,-0.0532 -0.34536,0.0532 -0.50508,0 -0.35714,-0.11905 -0.64493,-0.41377 -1.01015,-0.50508 -0.3973,-0.0993 -2.50522,0 -3.03046,0 -0.33672,0 -0.68349,0.0817 -1.01015,0 -0.36522,-0.0913 -0.64493,-0.41377 -1.01015,-0.50507 -0.32667,-0.0817 -0.67344,0 -1.01016,0 -0.80992,0 -1.72228,0.11472 -2.52538,0 -7.56124,-1.08018 -0.58544,0.14157 -4.04061,-1.01016 -0.15972,-0.0532 -0.33672,0 -0.50507,0 -0.42864,0 -2.75202,0.0928 -3.03046,0 -0.22588,-0.0753 -0.29212,-0.39859 -0.50508,-0.50507 -0.15058,-0.0753 -0.33672,0 -0.50507,0 -0.16836,0 -0.33672,0 -0.50508,0 -0.84179,0 -1.68359,0 -2.52538,0 -2.69374,0 -5.38748,0 -8.08122,0 -2.02031,0 -4.040613,0 -6.060918,0 -0.455258,0 -2.207487,-0.10597 -2.525382,0 -0.357142,0.11905 -0.653009,0.38603 -1.010152,0.50507 -0.159719,0.0532 -0.336718,0 -0.505076,0 -0.508639,0 -2.751142,-0.0931 -3.030458,0 -0.225877,0.0753 -0.292117,0.3986 -0.505076,0.50508 -0.334727,0.16736 -1.596988,-0.14111 -2.020305,0 -0.357143,0.11905 -0.65301,0.38603 -1.010153,0.50508 -0.347408,0.1158 -1.217224,-0.14901 -1.515229,0 -0.212959,0.10648 -0.292117,0.39859 -0.505076,0.50507 -0.150585,0.0753 -0.336717,0 -0.505076,0 -0.336718,0 -0.690715,-0.10648 -1.010153,0 -0.225877,0.0753 -0.292117,0.3986 -0.505076,0.50508 -0.277944,0.13897 -2.635593,-0.13162 -3.030458,0 -0.225877,0.0753 -0.279199,0.42978 -0.505076,0.50508 -0.287319,0.0958 -2.049681,0 -2.525381,0 -0.168359,0 -0.345357,-0.0532 -0.505077,0 -0.357142,0.11904 -0.653009,0.38602 -1.010152,0.50507 -0.298059,0.0994 -2.243182,0 -2.525382,0 -1.34687,0 -2.69374,0 -4.04061,0 -1.34687,0 -2.69374,0 -4.04061,0 -0.336717,0 -0.673435,0 -1.010152,0 -0.168359,0 -0.354492,0.0753 -0.505077,0 -0.212959,-0.10648 -0.279199,-0.42978 -0.505076,-0.50507 -0.418315,-0.13944 -2.204182,0.16059 -2.525381,0 -0.212959,-0.10648 -0.292118,-0.3986 -0.505077,-0.50508 -0.317451,-0.15873 -1.702853,0.15872 -2.020305,0 -0.212959,-0.10648 -0.292117,-0.3986 -0.505076,-0.50508 -0.317452,-0.15872 -1.702853,0.15873 -2.020305,0 -0.212959,-0.10648 -0.292117,-0.39859 -0.505076,-0.50507 -0.404061,-0.20203 -1.111168,0.20203 -1.515229,0 -0.212959,-0.10648 -0.292118,-0.3986 -0.505076,-0.50508 -1.243979,-0.62199 0.455949,1.4661 -1.515229,-0.50508 -0.266199,-0.26619 -0.238878,-0.74395 -0.505077,-1.01015 -0.238095,-0.23809 -0.708983,0.15059 -1.010152,0 -2.102007,-1.051 0.539944,0.0349 -0.505076,-1.01015 -0.119048,-0.11905 -0.386029,0.11905 -0.505077,0 -0.119047,-0.11905 0.119048,-0.38603 0,-0.50508 -0.238095,-0.23809 -0.708983,0.15059 -1.010152,0 -0.425918,-0.21296 -0.584235,-0.79719 -1.010153,-1.01015 -0.150584,-0.0753 -0.354491,0.0753 -0.505076,0 -1.043425,-0.52171 0.03066,-0.82135 -1.010153,-1.51523 -0.313235,-0.20882 -0.653009,-0.38603 -1.010152,-0.50508 -0.159719,-0.0532 -0.386029,0.11905 -0.505076,0 -0.119048,-0.11904 0.07529,-0.35449 0,-0.50507 -0.558376,-1.11675 -0.313472,-0.15674 -1.010153,-0.50508 -0.212959,-0.10648 -0.292117,-0.39859 -0.505076,-0.50507 -0.301169,-0.15059 -0.708983,0.15058 -1.010153,0 -0.212959,-0.10648 -0.336717,-0.33672 -0.505076,-0.50508 -0.168359,-0.16836 -0.398597,-0.29212 -0.505076,-0.50508 -0.07529,-0.15058 0.119047,-0.38603 0,-0.50507 -0.119048,-0.11905 -0.354492,0.0753 -0.505077,0 -0.212958,-0.10648 -0.336717,-0.33672 -0.505076,-0.50508 -0.168359,-0.16836 -0.398597,-0.29212 -0.505076,-0.50508 -0.07529,-0.15058 0.119048,-0.38602 0,-0.50507 -0.119048,-0.11905 -0.354492,0.0753 -0.505076,0 -0.212959,-0.10648 -0.292118,-0.3986 -0.505077,-0.50508 -0.301169,-0.15058 -0.708983,0.15059 -1.010152,0 -0.462307,-0.23115 -0.887118,-1.14612 -1.010153,-1.51523 -0.209004,-0.62701 0.414624,-0.5503 -0.505076,-1.01015 -0.301169,-0.15058 -0.772057,0.2381 -1.010153,0 -0.266198,-0.2662 -0.296252,-0.69692 -0.505076,-1.01015 -0.132071,-0.19811 -0.336717,-0.33672 -0.505076,-0.50508 -0.505076,-0.50507 -1.010153,-1.01015 -1.515229,-1.51523 -0.168359,-0.16836 -0.398597,-0.29211 -0.505076,-0.50507 -0.150585,-0.30117 0.238095,-0.77206 0,-1.01016 -0.266199,-0.26619 -0.65301,-0.38602 -1.010153,-0.50507 -0.159719,-0.0532 -0.386028,0.11905 -0.505076,0 -0.238095,-0.2381 0.150585,-0.70899 0,-1.01015 -0.106479,-0.21296 -0.336718,-0.33672 -0.505076,-0.50508 -1.33961,-1.33961 -1.519901,-1.48257 -2.020305,-4.04061 z"
       id="path3831"
       inkscape:connector-curvature="0"
       transform="translate(206.54535,845.10663)" />
    <path
       style="fill:none;stroke:#000000;stroke-width:1px;stroke-linecap:butt;stroke-linejoin:miter;stroke-opacity:1"
       d="m 25.253814,107.75549 c 0.841287,-0.21005 0.340118,3.20562 0.505076,3.53554 0.106479,0.21295 0.398597,0.29211 0.505076,0.50507 0.150585,0.30117 -0.150584,0.70898 0,1.01015 0.10648,0.21296 0.429784,0.2792 0.505076,0.50508 0.10648,0.31944 -0.08167,0.68349 0,1.01015 0.609747,2.43899 0.240023,-0.025 1.010153,1.51523 0.07529,0.15059 -0.05324,0.34536 0,0.50508 0.119048,0.35714 0.413771,0.64493 0.505076,1.01015 0.122499,0.49 -0.159719,1.03607 0,1.51523 0.119048,0.35714 0.413771,0.64493 0.505077,1.01015 0.08167,0.32667 -0.10648,0.69072 0,1.01015 0.150584,0.45176 0.797193,0.58424 1.010152,1.01016 0.07529,0.15058 -0.07529,0.35449 0,0.50507 0.212959,0.42592 0.797194,0.58424 1.010153,1.01016 0.150584,0.30117 -0.150585,0.70898 0,1.01015 0.303045,0.60609 1.212183,0.90914 1.515228,1.51523 0.07529,0.15058 -0.07529,0.35449 0,0.50507 0.10648,0.21296 0.336718,0.33672 0.505077,0.50508 0.168358,0.16836 0.292117,0.3986 0.505076,0.50508 0.150585,0.0753 0.386029,-0.11905 0.505076,0 0.238096,0.23809 -0.301169,0.85956 0,1.01015 0.30117,0.15058 0.708984,-0.15059 1.010153,0 0.150584,0.0753 -0.07529,0.35449 0,0.50507 0.106479,0.21296 0.373005,0.30697 0.505076,0.50508 0.208823,0.31324 0.238878,0.74396 0.505076,1.01015 0.266199,0.2662 0.696918,0.29626 1.010153,0.50508 0.198107,0.13207 0.336717,0.33672 0.505076,0.50508 0.168359,0.16835 0.398597,0.29211 0.505076,0.50507 0.348341,0.69668 -0.611675,0.45178 0.505077,1.01016 0.150584,0.0753 0.354491,-0.0753 0.505076,0 0.212959,0.10647 0.292117,0.39859 0.505076,0.50507 0.150585,0.0753 0.354492,-0.0753 0.505077,0 0.447668,0.22384 1.05545,1.20871 1.515228,1.51523 0.313235,0.20882 0.696918,0.29625 1.010153,0.50508 0.198107,0.13207 0.292117,0.39859 0.505076,0.50507 0.150585,0.0753 0.354492,-0.0753 0.505076,0 0.425918,0.21296 0.613939,0.74601 1.010153,1.01016 0.313235,0.20882 0.708983,0.27919 1.010153,0.50507 0.380952,0.28572 0.673435,0.67344 1.010152,1.01015 0.168359,0.16836 0.292118,0.3986 0.505076,0.50508 0.30117,0.15058 0.772058,-0.23809 1.010153,0 0.266198,0.2662 0.238878,0.74395 0.505076,1.01015 0.119048,0.11905 0.354492,-0.0753 0.505076,0 0.212959,0.10648 0.30697,0.37301 0.505077,0.50508 0.09408,0.0627 1.98794,0.97779 2.020305,1.01015 0.266198,0.2662 0.238878,0.74396 0.505076,1.01015 0.238095,0.2381 0.708983,-0.15058 1.010153,0 0.212959,0.10648 0.292117,0.3986 0.505076,0.50508 0.150585,0.0753 0.354492,-0.0753 0.505076,0 0.212959,0.10648 0.292118,0.3986 0.505076,0.50508 0.30117,0.15058 0.859568,-0.30117 1.010153,0 0.150585,0.30117 -0.150585,0.70898 0,1.01015 0.0417,0.0834 1.380851,0 1.515229,0 1.184494,0 -0.238095,-0.11905 1.010152,0.50508 0.150585,0.0753 0.354492,-0.0753 0.505077,0 1.540261,0.77013 -0.923757,0.4004 1.515228,1.01015 0.01689,0.004 1.512547,-0.003 1.515229,0 0.266199,0.2662 0.191842,0.80133 0.505077,1.01015 0.159725,0.10648 1.724238,-0.0987 2.020305,0 0.225877,0.0753 0.279199,0.42978 0.505076,0.50508 0.319438,0.10648 0.683489,-0.0817 1.010152,0 0.365222,0.0913 0.644932,0.41377 1.010153,0.50507 0.326664,0.0817 0.673435,0 1.010153,0 0.336717,0.16836 0.653009,0.38603 1.010152,0.50508 0.159719,0.0532 0.336718,0 0.505076,0 0.336718,0 0.673435,0 1.010153,0 0.505076,0 1.036071,-0.15972 1.515229,0 0.159719,0.0532 -0.119048,0.38603 0,0.50508 0.119047,0.11904 0.336717,0 0.505076,0 0.168359,0 0.336718,0 0.505076,0 0.525242,0 2.633156,-0.0993 3.030458,0 0.365221,0.0913 0.641001,0.43124 1.010152,0.50507 0.533355,0.10667 2.805097,0 3.535534,0 0.336718,0 0.673435,0 1.010153,0 0.168359,0 0.345357,-0.0532 0.505076,0 0.357143,0.11905 0.641002,0.43125 1.010153,0.50508 0.495268,0.099 1.010152,0 1.515229,0 0.168358,0 0.345357,-0.0532 0.505076,0 0.357143,0.11905 0.641001,0.43124 1.010152,0.50507 0.495268,0.0991 1.010153,0 1.515229,0 1.010153,0 2.020305,0 3.030458,0 1.010152,0 2.020305,0 3.030457,0 0.336718,0 0.679974,-0.066 1.010153,0 0.522058,0.10442 0.993171,0.40067 1.515229,0.50508 0.569628,0.11393 1.864397,0 2.525381,0 2.188667,0 4.377327,0 6.565987,0 4.54569,0 9.09138,0 13.63706,0 4.04061,0 8.08122,0 12.12183,0 1.68359,0 3.36718,0 5.05077,0 0.43769,0 1.72772,-0.0975 2.0203,0 0.35715,0.11905 0.64493,0.41377 1.01016,0.50508 0.48999,0.1225 1.01015,0 1.51522,0 1.01016,0 2.02031,0 3.03046,0 2.69374,0 5.38748,0 8.08122,0 9.09137,0 18.18275,0 27.27412,0 10.94332,0 21.88664,0 32.82996,0 3.53553,0 7.07107,0 10.6066,0 1.17851,0 2.35702,0 3.53553,0 0.57916,0 1.49711,0.1308 2.02031,0 0.36522,-0.0913 0.65301,-0.38603 1.01015,-0.50508 0.27335,-0.0911 1.84824,0 2.02031,0 1.17851,0 2.35702,0 3.53553,0 1.18449,0 -0.23809,0.11905 1.01015,-0.50508 0.18266,-0.0913 2.17408,0 2.52538,0 1.01016,0 2.02031,0 3.03046,0 0.16836,0 0.33672,0 0.50508,0 0.16836,0 0.38603,0.11905 0.50507,0 0.11905,-0.11904 -0.11904,-0.38602 0,-0.50507 0.11905,-0.11905 0.33672,0 0.50508,0 0.16836,0 0.33672,0 0.50508,0 1.68358,0 3.36717,0 5.05076,0 1.01015,0 2.02031,0 3.03046,0 0.33189,0 1.23026,0.095 1.51523,0 0.35714,-0.11905 0.65301,-0.38603 1.01015,-0.50508 0.15972,-0.0532 0.33672,0 0.50508,0 0.45525,0 2.20748,0.10597 2.52538,0 0.35714,-0.11905 0.65301,-0.38603 1.01015,-0.50507 0.30302,-0.10101 2.12235,0 2.52538,0 1.85195,0 3.70389,0 5.55584,0 0.33672,0 0.67343,0 1.01015,0 0.33672,0 0.69072,0.10648 1.01015,0 0.22588,-0.0753 0.2792,-0.42979 0.50508,-0.50508 0.31944,-0.10648 0.67344,0 1.01015,0 0.58464,0 2.07446,0.11273 2.52538,0 0.36523,-0.0913 0.65301,-0.38603 1.01016,-0.50508 0.31944,-0.10648 0.70898,0.15059 1.01015,0 0.21296,-0.10648 0.29212,-0.39859 0.50508,-0.50507 0.32275,-0.16138 1.61377,0.13551 2.0203,0 0.35714,-0.11905 0.65301,-0.38603 1.01015,-0.50508 0.42524,-0.14175 2.22468,0.15035 2.52539,0 0.21295,-0.10648 0.29211,-0.3986 0.50507,-0.50508 0.22475,-0.11237 1.78929,0.077 2.02031,0 0.22587,-0.0753 0.2792,-0.42978 0.50507,-0.50507 0.31944,-0.10648 0.67344,0 1.01016,0 0.16835,0 0.35449,0.0753 0.50507,0 0.21296,-0.10648 0.29212,-0.3986 0.50508,-0.50508 0.30117,-0.15058 0.67997,0.066 1.01015,0 0.68068,-0.13613 1.33962,-0.36894 2.02031,-0.50507 0.16508,-0.033 0.35449,0.0753 0.50507,0 0.21296,-0.10648 0.29212,-0.3986 0.50508,-0.50508 0.15058,-0.0753 0.35449,0.0753 0.50507,0 0.42592,-0.21296 0.58424,-0.79719 1.01016,-1.01015 0.15058,-0.0753 0.38603,0.11904 0.50507,0 0.11905,-0.11905 -0.11904,-0.38603 0,-0.50508 0.2381,-0.23809 0.77206,0.2381 1.01016,0 0.11904,-0.11905 -0.11905,-0.38603 0,-0.50508 0.11904,-0.11904 0.38602,0.11905 0.50507,0 0.11905,-0.11904 -0.11905,-0.38602 0,-0.50507 0.2381,-0.2381 0.70899,0.15058 1.01015,0 0.21296,-0.10648 0.33672,-0.33672 0.50508,-0.50508 0.16836,-0.16836 0.3986,-0.29212 0.50508,-0.50507 0.15058,-0.30117 -0.2381,-0.77206 0,-1.01016 0.2662,-0.2662 0.74395,-0.23887 1.01015,-0.50507 0.2662,-0.2662 0.29625,-0.69692 0.50508,-1.01016 0.13207,-0.1981 0.39859,-0.29211 0.50507,-0.50507 0.0753,-0.15059 -0.0753,-0.35449 0,-0.50508 0.30305,-0.60609 1.21219,-0.90914 1.51523,-1.51523 0.15059,-0.30117 -0.15058,-0.70898 0,-1.01015 0.21296,-0.42592 0.79719,-0.58423 1.01015,-1.01015 0.15059,-0.30117 -0.15058,-0.70899 0,-1.01015 0.51076,-1.02151 1.17212,-0.16197 1.51523,-0.50508 0.11905,-0.11905 -0.0532,-0.34536 0,-0.50508 0.11905,-0.35714 0.38603,-0.65301 0.50508,-1.01015 0.0532,-0.15972 -0.11905,-0.38603 0,-0.50508 0.11905,-0.11904 0.38603,0.11905 0.50507,0 0,-1.34687 -0.16835,0.16836 0.50508,-0.50507 0.2381,-0.2381 -0.15058,-0.70899 0,-1.01016 1.051,-2.102 -0.0349,0.53995 1.01015,-0.50507 0.2381,-0.2381 -0.23809,-0.77206 0,-1.01015 0.11905,-0.11905 0.38603,0.11904 0.50508,0 0.2381,-0.2381 -0.15058,-0.70899 0,-1.01016 1.051,-2.102 -0.0349,0.53995 1.01015,-0.50507 0.2381,-0.2381 -0.15058,-0.70899 0,-1.01016 0.38678,-0.77356 0.90006,-0.39497 1.51523,-1.01015 0.10326,-0.10325 -0.10013,-1.31497 0,-1.51523 0.21296,-0.42591 0.74601,-0.61393 1.01015,-1.01015 1.11277,-0.25435 0.26698,-1.03904 0.50508,-1.51523 0.10648,-0.21296 0.3986,-0.29212 0.50508,-0.50507 0.20203,-0.40407 -0.20203,-1.11117 0,-1.51523 0.10648,-0.21296 0.39859,-0.29212 0.50507,-0.50508 0.20203,-0.40406 -0.20203,-1.11117 0,-1.51523 1.15577,-2.31153 -0.20934,2.14325 1.01016,-1.51523 0.0655,-0.19653 -0.0784,-1.43684 0,-1.51523 0.11904,-0.11904 0.38602,0.11905 0.50507,0 0.2381,-0.23809 -0.15058,-0.70898 0,-1.01015 0.21296,-0.42592 0.7972,-0.58423 1.01015,-1.01015 0.0753,-0.15059 -0.0753,-0.35449 0,-0.50508 0.10648,-0.21296 0.3986,-0.29211 0.50508,-0.50507 0.15059,-0.30117 -0.10648,-0.69072 0,-1.01016 0.11905,-0.35714 0.38603,-0.65301 0.50508,-1.01015 0.0532,-0.15972 -0.11905,-0.38603 0,-0.50507 0.11904,-0.11905 0.38603,0.11904 0.50507,0 0.2381,-0.2381 -0.23809,-0.77206 0,-1.01016 0.11905,-0.11905 0.38603,0.11905 0.50508,0 0.25254,-0.25254 -0.25254,-1.26269 0,-1.51523 0.11905,-0.11904 0.38603,0.11905 0.50508,0 0.11904,-0.11904 -0.0753,-0.35449 0,-0.50507 0.10647,-0.21296 0.39859,-0.29212 0.50507,-0.50508 0.15059,-0.30117 -0.23809,-0.77206 0,-1.01015 0.2662,-0.2662 0.74396,-0.23888 1.01015,-0.50508 0.2381,-0.23809 -0.15058,-0.70898 0,-1.01015 1.05101,-2.102007 -0.0349,0.53994 1.01016,-0.50508 0.25253,-0.25253 -0.25254,-1.262687 0,-1.515225 0.11904,-0.119048 0.38603,0.119047 0.50507,0 0.2381,-0.238095 -0.23809,-0.772058 0,-1.010153 0.11905,-0.119047 0.38603,0.119048 0.50508,0 0.23809,-0.238095 -0.10648,-0.690714 0,-1.010152 0.58037,-1.741106 0.50508,-0.374143 0.50508,-1.515229"
       id="path3833"
       inkscape:connector-curvature="0"
       transform="translate(206.54535,845.10663)" />
    <path
       style="fill:none;stroke:#000000;stroke-width:1px;stroke-linecap:butt;stroke-linejoin:miter;stroke-opacity:1"
       d="m 26.769042,105.23011 c 1.178512,0 2.357023,0 3.535534,0 0.168359,0 0.354492,0.0753 0.505077,0 0.212959,-0.10648 0.292117,-0.3986 0.505076,-0.50508 0.322755,-0.16137 1.613769,0.13552 2.020305,0 0.357143,-0.11904 0.644931,-0.41377 1.010153,-0.50507 0.653328,-0.16333 1.366977,0.16333 2.020305,0 0.365221,-0.0913 0.644931,-0.41377 1.010152,-0.50508 0.326664,-0.0817 0.673435,0 1.010153,0 0.841794,0 1.683587,0 2.525381,0 0.168359,0 0.336718,0 0.505076,0 0.168359,0 0.354492,0.0753 0.505077,0 0.212959,-0.10648 0.292117,-0.3986 0.505076,-0.50508 0.150585,-0.0753 0.336717,0 0.505076,0 0.168359,0 0.336718,0 0.505076,0 0.342047,0 3.30544,0.0767 3.535534,0 1.872372,-0.62412 -0.615663,-0.50507 1.010153,-0.50507 0.120021,0 1.907102,0.0566 2.020305,0 0.212959,-0.10648 0.336718,-0.33672 0.505076,-0.50508 0.336718,0 0.690715,0.10648 1.010153,0 0.225877,-0.0753 0.292117,-0.39859 0.505076,-0.50507 0.317452,-0.15873 1.702854,0.15872 2.020305,0 0.212959,-0.10648 0.292118,-0.3986 0.505076,-0.50508 0.404061,-0.20203 1.111168,0.20203 1.515229,0 0.212959,-0.10648 0.292118,-0.3986 0.505077,-0.50508 0.26707,-0.13353 1.774236,0.0615 2.020305,0 0.365221,-0.0913 0.653009,-0.38603 1.010152,-0.50507 0.159719,-0.0532 0.354492,0.0753 0.505076,0 0.425918,-0.212962 0.558399,-0.859571 1.010153,-1.010155 0.418315,-0.139439 2.204182,0.160599 2.525381,0 0.212959,-0.10648 0.292118,-0.398597 0.505077,-0.505077 1.010152,-0.505076 0,1.010153 1.515228,0 0.313235,-0.208823 0.191842,-0.801329 0.505077,-1.010152 0.217184,-0.14479 2.204478,0.106968 2.525381,0 0.451754,-0.150585 0.584235,-0.797194 1.010153,-1.010153 0.150584,-0.07529 0.345357,0.05324 0.505076,0 0.357143,-0.119047 0.65301,-0.386028 1.010152,-0.505076 0.319439,-0.106479 0.683489,0.08167 1.010153,0 2.539045,-0.634761 0.561516,-0.280758 3.030458,-1.515229 0.317451,-0.158726 1.702853,0.158726 2.020305,0 0.212959,-0.106479 0.292117,-0.398597 0.505076,-0.505076 0.150585,-0.07529 0.354492,0.07529 0.505076,0 0.212959,-0.106479 0.292118,-0.398597 0.505077,-0.505076 0.317451,-0.158726 1.702853,0.158726 2.020305,0 0.212959,-0.10648 0.292117,-0.398597 0.505076,-0.505077 0.322171,-0.161085 2.39035,0.135031 2.525381,0 0.119048,-0.119047 -0.119047,-0.386028 0,-0.505076 0.1382,-0.1382 1.746308,0.136999 2.020305,0 0.212959,-0.106479 0.292118,-0.398597 0.505077,-0.505076 0.317451,-0.158726 1.702853,0.158726 2.020305,0 0.212959,-0.10648 0.292117,-0.398597 0.505076,-0.505076 0.224748,-0.112374 1.78929,0.077 2.020305,0 0.225877,-0.07529 0.292118,-0.398597 0.505076,-0.505077 0.150585,-0.07529 0.345358,0.05324 0.505077,0 0.357143,-0.119047 0.653009,-0.386028 1.010152,-0.505076 0.5367,-0.1789 1.483605,0.1789 2.020305,0 0.357143,-0.119048 0.644931,-0.413771 1.010153,-0.505076 0.445587,-0.111397 1.587628,0.144226 2.020305,0 0.357143,-0.119048 0.65301,-0.386029 1.010152,-0.505076 0.15972,-0.05324 0.345358,0.05324 0.505077,0 0.357143,-0.119048 0.644934,-0.413771 1.010154,-0.505077 0.24607,-0.06152 1.75323,0.133536 2.0203,0 0.21296,-0.106479 0.2792,-0.429784 0.50508,-0.505076 0.68963,-0.229876 2.34083,0.229876 3.03046,0 0.22587,-0.07529 0.2792,-0.429784 0.50507,-0.505076 0.28941,-0.09647 2.05121,0 2.52538,0 0.16836,0 0.34536,0.05324 0.50508,0 0.35714,-0.119048 0.64493,-0.413771 1.01015,-0.505077 0.32667,-0.08167 0.67344,0 1.01016,0 0.16836,0 0.35449,0.07529 0.50507,0 0.21296,-0.106479 0.2792,-0.429783 0.50508,-0.505076 0.31944,-0.106479 0.67343,0 1.01015,0 0.33672,0 0.67344,0 1.01015,0 1.97306,0 0.0533,0.150585 2.02031,-0.505076 0.15972,-0.05324 0.33672,0 0.50508,0 0.84179,0 1.68358,0 2.52538,0 0.33671,0 0.69071,0.106479 1.01015,0 0.22588,-0.07529 0.29212,-0.398597 0.50508,-0.505076 0.15058,-0.07529 0.34535,0.05324 0.50507,0 0.35714,-0.119048 0.64493,-0.413771 1.01015,-0.505077 0.45093,-0.112731 1.94075,0 2.52539,0 0.16835,0 0.33671,0 0.50507,0 0.16836,0 0.35449,0.07529 0.50508,0 0.21296,-0.106479 0.2792,-0.429784 0.50507,-0.505076 0.26021,-0.08673 3.00126,0 3.53554,0 0.16836,0 0.33672,0 0.50507,0 0.16836,0 0.3545,0.07529 0.50508,0 0.21296,-0.106479 0.29212,-0.398597 0.50508,-0.505076 0.298,-0.149003 1.16782,0.115802 1.51523,0 0.35714,-0.119048 0.64493,-0.413771 1.01015,-0.505076 0.5232,-0.130801 1.44115,0 2.0203,0 1.34687,0 2.69374,0 4.04061,0 3.87226,0 7.74451,0 11.61676,0 3.36717,0 6.73435,0 10.10152,0 1.01016,0 2.02031,0 3.03046,0 0.33672,0 0.67344,0 1.01015,0 0.16836,0 0.34536,-0.05324 0.50508,0 0.35714,0.119047 0.641,0.431246 1.01015,0.505076 0.49527,0.09905 1.01016,0 1.51523,0 1.01015,0 2.02031,0 3.03046,0 0.16836,0 0.34536,-0.05324 0.50508,0 0.35714,0.119047 0.641,0.431246 1.01015,0.505076 0.82544,0.165089 1.70872,-0.204165 2.52538,0 0.36522,0.09131 0.64493,0.413771 1.01015,0.505076 0.42993,0.107482 2.23544,-0.144973 2.52538,0 0.21296,0.10648 0.2792,0.429784 0.50508,0.505077 0.68963,0.229876 2.34083,-0.229876 3.03046,0 0.22587,0.07529 0.2792,0.429784 0.50507,0.505076 0.31944,0.106479 0.67344,0 1.01016,0 0.16835,0 0.36499,-0.09339 0.50507,0 0.39622,0.264143 0.67344,0.673435 1.01015,1.010152 0.16836,0.168359 0.2792,0.429784 0.50508,0.505077 0.63888,0.212959 1.41797,-0.30117 2.02031,0 0.42591,0.212959 0.6292,0.724438 1.01015,1.010152 0.30117,0.225877 0.67343,0.336718 1.01015,0.505077 0.67344,0.336717 1.36213,0.6445 2.02031,1.010152 1.18654,0.659188 2.3845,1.30091 3.53553,2.020305 0.2019,0.12619 0.2792,0.429784 0.50508,0.505076 0.63887,0.212959 1.41796,-0.301169 2.0203,0 0.42592,0.212959 0.6292,0.724439 1.01015,1.010153 0.30117,0.225877 0.69692,0.296253 1.01016,0.505076 0.1981,0.132072 0.30697,0.373005 0.50507,0.505077 0.31324,0.208823 0.67344,0.336717 1.01016,0.505076 0.33671,0.168359 0.65301,0.386028 1.01015,0.505076 0.15972,0.05324 0.33672,0 0.50507,0 0.50508,0.168359 1.02091,0.307349 1.51523,0.505076 0.34954,0.139815 0.69692,0.296253 1.01016,0.505077 0.1981,0.132071 0.27919,0.429784 0.50507,0.505076 0.31944,0.106479 0.69072,-0.106479 1.01015,0 0.22588,0.07529 0.29212,0.398597 0.50508,0.505076 0.15059,0.07529 0.34536,-0.05324 0.50508,0 0.35714,0.119048 0.64493,0.413771 1.01015,0.505076 0.24607,0.06152 1.75323,-0.133535 2.0203,0 0.21296,0.10648 0.29212,0.398597 0.50508,0.505077 0.40406,0.20203 1.11117,-0.202031 1.51523,0 0.21296,0.106479 0.29212,0.398597 0.50508,0.505076 0.31309,0.156549 2.21539,-0.154994 2.52538,0 0.15058,0.07529 -0.11905,0.386029 0,0.505079 0.11904,0.11904 0.33671,0 0.50507,0 0.4757,0 2.23807,-0.0958 2.52539,0 0.22587,0.0753 0.29211,0.39859 0.50507,0.50507 0.31864,0.15932 2.20675,-0.15932 2.52538,0 0.21296,0.10648 0.29212,0.3986 0.50508,0.50508 0.15058,0.0753 0.34536,-0.0532 0.50508,0 0.35714,0.11905 0.64493,0.41377 1.01015,0.50508 0.66408,0.16602 1.8981,-0.2091 2.52538,0 0.22588,0.0753 0.29212,0.39859 0.50508,0.50507 0.15058,0.0753 0.33671,0 0.50507,0 0.38558,0 2.71224,-0.10607 3.03046,0 0.35714,0.11905 0.64493,0.41377 1.01015,0.50508 0.32667,0.0817 0.67344,0 1.01015,0 0.16836,0 0.3545,-0.0753 0.50508,0 0.21296,0.10648 0.29212,0.3986 0.50508,0.50507 0.15058,0.0753 0.33671,0 0.50507,0 0.8418,0 1.68359,0 2.52538,0 0.16836,0 0.33672,0 0.50508,0 0.16836,0 0.35449,-0.0753 0.50508,0 0.21296,0.10648 0.29211,0.3986 0.50507,0.50508 0.3067,0.15335 2.72377,-0.15335 3.03046,0 0.21296,0.10648 0.29212,0.3986 0.50508,0.50508 0.29171,0.14585 2.53493,-0.12388 3.03045,0 0.36523,0.0913 0.64494,0.41377 1.01016,0.50507 0.32666,0.0817 0.69071,-0.10648 1.01015,0 0.22588,0.0753 0.29212,0.3986 0.50508,0.50508 0.15058,0.0753 0.33671,0 0.50507,0 0.33672,0 0.67344,0 1.01016,0 0.84179,0 1.68358,0 2.52538,0 0.16836,0 0.33671,0 0.50507,0 0.16836,0 0.35449,-0.0753 0.50508,0 0.21296,0.10648 0.29212,0.3986 0.50508,0.50508 0.15058,0.0753 0.33671,0 0.50507,0 0.8418,0 1.68359,0 2.52538,0 0.33672,0 0.68349,-0.0817 1.01016,0 0.36522,0.0913 0.65301,0.38602 1.01015,0.50507 0.3431,0.11437 2.88405,0 3.53553,0 8.75466,0 17.50931,0 26.26397,0 2.35702,0 4.71404,0 7.07107,0 0.358,0 2.89987,0.0653 3.03045,0 0.21296,-0.10648 0.29212,-0.39859 0.50508,-0.50507 0.34887,-0.17444 2.34809,0.17729 2.52538,0 0.11905,-0.11905 -0.11905,-0.38603 0,-0.50508 0.1564,-0.1564 2.36899,0.1564 2.52538,0 0.11905,-0.11905 -0.11905,-0.38603 0,-0.50508 0.14945,-0.14944 1.70746,0.15643 2.02031,0 0.21296,-0.10648 0.29212,-0.39859 0.50507,-0.50507 0.30117,-0.15059 0.77206,0.23809 1.01016,0 0.2662,-0.2662 0.23887,-0.74396 0.50507,-1.01016 0.10326,-0.10325 1.31497,0.10013 1.51523,0 0.21296,-0.10647 0.2792,-0.42978 0.50508,-0.50507 0.31944,-0.10648 0.69071,0.10648 1.01015,0 0.22588,-0.0753 0.29212,-0.3986 0.50508,-0.50508 0.15058,-0.0753 0.35449,0.0753 0.50507,0 0.21296,-0.10648 0.29212,-0.39859 0.50508,-0.50507 0.20026,-0.10013 1.41197,0.10325 1.51523,0 0.11905,-0.11905 -0.11905,-0.38603 0,-0.50508 0.11905,-0.11905 0.35449,0.0753 0.50507,0 0.15282,-0.0764 1.9439,-1.867492 2.02031,-2.020305 0.0753,-0.150585 -0.0753,-0.354492 0,-0.505077 0.10648,-0.212958 0.373,-0.306969 0.50508,-0.505076 0.20882,-0.313235 0.23887,-0.743954 0.50507,-1.010152 0.2381,-0.238096 0.77206,0.238095 1.01015,0 0.11905,-0.119048 -0.11904,-0.386029 0,-0.505077 0.11905,-0.119047 0.38603,0.119048 0.50508,0 0.11905,-0.119047 -0.11905,-0.386028 0,-0.505076 0.67344,-0.673435 0.50508,0.841794 0.50508,-0.505076"
       id="path3835"
       inkscape:connector-curvature="0"
       transform="translate(206.54535,845.10663)" />
    <path
       style="fill:none;stroke:#000000;stroke-width:1px;stroke-linecap:butt;stroke-linejoin:miter;stroke-opacity:1"
       d="m 319.71328,93.108279 c -0.87318,0 -1.18351,0.05279 -2.0203,-0.505076 -0.19811,-0.132071 -0.2792,-0.429786 -0.50508,-0.505076 -0.31944,-0.10648 -0.67344,0 -1.01015,0 -0.16836,-0.168359 -0.29212,-0.398597 -0.50508,-0.505076 -0.22475,-0.112374 -1.78929,0.077 -2.0203,0 -0.22588,-0.07529 -0.29212,-0.398597 -0.50508,-0.505077 -0.20026,-0.100129 -1.41197,0.103256 -1.51523,0 -0.11905,-0.119047 0.11905,-0.386028 0,-0.505076 -0.12154,-0.121537 -1.89877,0.121537 -2.0203,0 -0.11905,-0.119048 0.11904,-0.386029 0,-0.505076 -0.2381,-0.238095 -0.70899,0.150584 -1.01016,0 -0.21296,-0.10648 -0.29211,-0.398597 -0.50507,-0.505076 -0.30117,-0.150585 -0.77206,0.238095 -1.01016,0 -0.11904,-0.119048 0.11905,-0.386029 0,-0.505077 -0.11904,-0.119047 -0.33671,0 -0.50507,0 -0.8418,0 -1.68359,0 -2.52538,0 -2.69374,0 -5.38748,0 -8.08122,0 -0.8418,0 -1.68359,0 -2.52539,0 -0.33671,0 -0.69071,0.10648 -1.01015,0 -0.35714,-0.119047 -0.65301,-0.386028 -1.01015,-0.505076 -0.40654,-0.135512 -1.69755,0.161377 -2.02031,0 -0.21295,-0.106479 -0.29211,-0.398597 -0.50507,-0.505076 -0.15059,-0.07529 -0.33672,0 -0.50508,0 -0.16836,0 -0.33672,0 -0.50507,0 -1.17852,0 -2.35703,0 -3.53554,0 -0.33672,0 -0.69071,0.106479 -1.01015,0 -0.35714,-0.119048 -0.65301,-0.386029 -1.01015,-0.505077 -0.3288,-0.1096 -3.11269,0 -3.53554,0 -0.33671,0 -0.69071,0.10648 -1.01015,0 -0.35714,-0.119047 -0.65301,-0.386028 -1.01015,-0.505076 -0.2941,-0.09803 -2.68293,0 -3.03046,0 -0.16836,0 -0.33672,0 -0.50508,0 -0.16836,0 -0.35449,0.07529 -0.50507,0 -0.21296,-0.106479 -0.29212,-0.398597 -0.50508,-0.505076 -0.15058,-0.07529 -0.33672,0 -0.50508,0 -0.59659,0 -2.73011,0.100116 -3.03045,0 -0.22588,-0.07529 -0.29212,-0.398597 -0.50508,-0.505076 -0.15058,-0.07529 -0.34536,0.05324 -0.50508,0 -0.35714,-0.119048 -0.64493,-0.413767 -1.01015,-0.505077 -0.32666,-0.08167 -0.67343,0 -1.01015,0 -1.17851,0 -2.35702,0 -3.53553,0 -0.33672,0 -0.69072,0.10648 -1.01016,0 -0.22587,-0.07529 -0.29211,-0.398596 -0.50507,-0.505076 -0.3067,-0.153347 -2.72377,0.153347 -3.03046,0 -0.21296,-0.106479 -0.2792,-0.429786 -0.50508,-0.505076 -0.2894,-0.09647 -2.0512,0 -2.52538,0 -0.16836,0 -0.34536,0.05324 -0.50507,0 -0.35715,-0.119048 -0.65301,-0.386029 -1.01016,-0.505076 -0.15972,-0.05324 -0.34535,0.05324 -0.50507,0 -0.35715,-0.119048 -0.64493,-0.413767 -1.01016,-0.505077 -0.32666,-0.08167 -0.69071,0.10648 -1.01015,0 -0.22588,-0.07529 -0.29212,-0.398597 -0.50507,-0.505076 -0.32815,-0.164074 -2.70231,0.164074 -3.03046,0 -0.21296,-0.106479 -0.2792,-0.429786 -0.50508,-0.505076 -0.0199,-0.0066 -1.27791,0.07911 -1.51523,0 -0.35714,-0.119048 -0.64493,-0.413767 -1.01015,-0.505077 -0.32666,-0.08167 -0.67344,0 -1.01015,0 -0.8418,0 -1.68359,0 -2.52538,0 -0.16836,0 -0.33672,0 -0.50508,0 -0.16836,0 -0.35449,0.07529 -0.50508,0 -0.21296,-0.106479 -0.29211,-0.398596 -0.50507,-0.505076 -0.15059,-0.07529 -0.33672,0 -0.50508,0 -0.16836,0 -0.33672,0 -0.50508,0 -0.84179,0 -1.68358,0 -2.52538,0 -0.33671,0 -0.68349,0.08167 -1.01015,0 -0.5165,-0.129125 -0.99317,-0.400664 -1.51523,-0.505076 -0.49527,-0.09905 -1.02523,0.122499 -1.51523,0 -0.5165,-0.129125 -0.99317,-0.400665 -1.51523,-0.505076 -0.33017,-0.06604 -0.67343,0 -1.01015,0 -0.0729,0 -2.19646,0 -2.52538,0 -0.50508,0 -1.04628,0.18758 -1.51523,0 -0.44213,-0.176853 -0.56802,-0.8333 -1.01015,-1.010153 -0.4209,-0.168359 -1.96419,0.112239 -2.52538,0 -0.52206,-0.104412 -0.99317,-0.400665 -1.51523,-0.505076 -0.62229,-0.124458 -1.95506,0.190109 -2.52538,0 -0.22588,-0.07529 -0.29212,-0.398597 -0.50508,-0.505076 -0.15058,-0.07529 -0.34536,0.05324 -0.50508,0 -0.35714,-0.119048 -0.64493,-0.413767 -1.01015,-0.505077 -0.79227,-0.198069 -1.7331,0.198069 -2.52538,0 -2.43898,-0.609746 0.025,-0.240022 -1.51523,-1.010152 -0.298,-0.149003 -1.16782,0.115802 -1.51523,0 -0.35714,-0.119048 -0.64493,-0.413767 -1.01015,-0.505077 -0.32666,-0.08167 -0.69071,0.10648 -1.01015,0 -0.22588,-0.07529 -0.29212,-0.398596 -0.50508,-0.505076 -0.40406,-0.20203 -1.11117,0.202031 -1.51523,0 -0.42591,-0.212959 -0.58423,-0.797193 -1.01015,-1.010152 -0.26661,-0.133304 -1.29529,0.146628 -1.51523,0 -0.39621,-0.264143 -0.61394,-0.74601 -1.01015,-1.010153 -0.28017,-0.186777 -0.70898,0.150585 -1.01015,0 -0.21296,-0.106479 -0.29212,-0.398597 -0.50508,-0.505076 -0.15058,-0.07529 -0.35449,0.07529 -0.50508,0 -0.21295,-0.10648 -0.30696,-0.373005 -0.50507,-0.505076 -2.47358,-1.64903 0.82045,1.325528 -2.52538,-2.020306 -0.26938,-0.20203 -0.70899,0.150585 -1.01016,0 -0.21295,-0.106479 -0.29211,-0.398596 -0.50507,-0.505076 -0.15059,-0.07529 -0.38603,0.119048 -0.50508,0 -0.11905,-0.119047 0.11905,-0.386028 0,-0.505076 -0.23809,-0.238095 -0.69071,0.106479 -1.01015,0 -0.35714,-0.119048 -0.65301,-0.386029 -1.01015,-0.505076 -0.19654,-0.06551 -1.43683,0.07838 -1.51523,0 -0.11905,-0.119048 0.11905,-0.386029 0,-0.505077 -0.11905,-0.119047 -0.35449,0.07529 -0.50508,0 -0.21296,-0.106479 -0.29212,-0.398596 -0.50508,-0.505076 -0.40406,-0.20203 -1.11116,0.202031 -1.51522,0 -0.42592,-0.212959 -0.58424,-0.797194 -1.01016,-1.010152 -0.2666,-0.133304 -1.29528,0.146628 -1.51523,0 -0.39621,-0.264143 -0.61393,-0.74601 -1.01015,-1.010153 -0.28016,-0.186777 -0.70898,0.150585 -1.01015,0 -0.42592,-0.212959 -0.58424,-0.797194 -1.01015,-1.010153 -0.40406,-0.20203 -1.11117,0.202031 -1.51523,0 -0.21296,-0.106479 -0.29212,-0.398596 -0.50508,-0.505076 -0.31745,-0.158726 -1.70285,0.158726 -2.0203,0 -0.21296,-0.106479 -0.29212,-0.398597 -0.50508,-0.505076 -0.15058,-0.07529 -0.35449,0.07529 -0.50508,0 -0.42591,-0.212959 -0.58423,-0.797194 -1.01015,-1.010153 -0.20026,-0.100129 -1.41197,0.103256 -1.51523,0 -0.2662,-0.266198 -0.19184,-0.801329 -0.50507,-1.010152 -0.50508,-0.336718 -1.01016,0.168359 -1.51523,0 -3.65848,-1.219493 0.7963,0.145615 -1.51523,-1.010153 -0.29801,-0.149002 -1.16782,0.115803 -1.51523,0 -0.35714,-0.119047 -0.67343,-0.336717 -1.01015,-0.505076 -0.33672,0 -0.68349,0.08167 -1.01015,0 -0.73045,-0.182611 -1.30602,-0.772057 -2.02031,-1.010153 -1.50353,-0.501176 1.03632,1.195956 -1.51523,-0.505076 -0.19811,-0.132071 -0.2792,-0.429786 -0.50508,-0.505076 -0.002,-7.63e-4 -1.51474,4.82e-4 -1.51522,0 -0.11905,-0.119048 0.15058,-0.429786 0,-0.505076 -0.40406,-0.202031 -1.11117,0.20203 -1.51523,0 -0.21296,-0.10648 -0.29212,-0.398597 -0.50508,-0.505077 -0.18265,-0.09133 -2.17408,0 -2.52538,0 -1.85195,0 -3.70389,0 -5.55584,0 -3.19882,0 -6.39763,0 -9.59645,0 -0.12249,0 -1.49903,-0.01624 -1.51523,0 -0.11904,0.119048 0.11905,0.386029 0,0.505077 -0.0203,0.02032 -1.83482,0 -2.0203,0 -0.26412,0 -1.8875,-0.0664 -2.02031,0 -0.21296,0.106479 -0.29211,0.398596 -0.50507,0.505076 -0.34888,0.174436 -2.34809,-0.177292 -2.52539,0 -0.11904,0.119048 0.11905,0.386029 0,0.505076 -0.11904,0.119048 -0.33671,0 -0.50507,0 -0.8418,0 -1.68359,0 -2.52538,0 -0.16836,0 -0.38603,-0.119047 -0.50508,0 -0.11905,0.119048 0.11905,0.386029 0,0.505076 -0.15639,0.156396 -2.36898,-0.156395 -2.52538,0 -0.11905,0.119048 0.11905,0.386029 0,0.505077 -0.11905,0.119047 -0.33672,0 -0.50508,0 -0.26982,0 -2.38082,-0.07228 -2.52538,0 -0.21296,0.106479 -0.29212,0.398597 -0.50507,0.505076 -0.40407,0.202031 -1.11117,-0.202031 -1.51523,0 -0.21296,0.106479 -0.29212,0.398597 -0.50508,0.505076 -0.2988,0.149403 -2.58537,-0.111272 -3.03046,0 -0.36522,0.09131 -0.65301,0.386029 -1.01015,0.505077 -0.19654,0.06551 -1.43683,-0.07838 -1.51523,0 -0.2662,0.266198 -0.23888,0.743954 -0.50507,1.010152 -0.1665,0.166492 -1.65481,-0.121832 -2.02031,0 -0.22588,0.07529 -0.29212,0.398597 -0.50508,0.505076 -0.31745,0.158726 -1.70285,-0.158725 -2.0203,0 -0.21296,0.10648 -0.29212,0.398597 -0.50508,0.505077 -0.31745,0.158725 -1.70285,-0.158726 -2.0203,0 -0.21296,0.106479 -0.29212,0.398596 -0.50508,0.505076 -0.15058,0.07529 -0.33672,0 -0.50508,0 -0.33671,0 -0.69071,-0.10648 -1.01015,0 -0.22587,0.07529 -0.29212,0.398597 -0.50507,0.505076 -0.20026,0.10013 -1.41198,-0.103256 -1.51523,0 -0.11905,0.119048 0.11904,0.386029 0,0.505076 -0.11905,0.119048 -0.33672,0 -0.50508,0 -0.16836,0 -0.33672,0 -0.50508,0 -0.22849,0 -2.89585,-0.0673 -3.03045,0 -0.21296,0.10648 -0.29212,0.398597 -0.50508,0.505077 -0.15058,0.07529 -0.33672,0 -0.50508,0 -0.35799,0 -2.899865,-0.06529 -3.030453,0 -0.212959,0.106479 -0.292117,0.398597 -0.505076,0.505076 -0.328149,0.164074 -2.702309,-0.164074 -3.030458,0 -0.212959,0.106479 -0.292117,0.398597 -0.505076,0.505076 -0.404061,0.202031 -1.111168,-0.20203 -1.515229,0 -0.212959,0.10648 -0.279199,0.429787 -0.505076,0.505077 -0.24538,0.08179 -3.019877,0 -3.535534,0 -0.168359,0 -0.345357,-0.05324 -0.505077,0 -0.357142,0.119047 -0.644931,0.413766 -1.010152,0.505076 -0.44509,0.111272 -2.731653,-0.149403 -3.030458,0 -0.212959,0.106479 -0.292117,0.398597 -0.505076,0.505076 -0.306694,0.153347 -2.723764,-0.153347 -3.030458,0 -0.212958,0.10648 -0.292117,0.398597 -0.505076,0.505076 -0.301169,0.150585 -0.708983,-0.150584 -1.010152,0 -0.212959,0.10648 -0.292118,0.398597 -0.505077,0.505077 -0.136675,0.06834 -2.812896,0 -3.030457,0 -0.168359,0 -0.336718,0 -0.505077,0 -0.168358,0 -0.354491,-0.07529 -0.505076,0 -0.212959,0.106479 -0.292117,0.398596 -0.505076,0.505076 -0.295912,0.147956 -2.153192,-0.09305 -2.525382,0 -0.365221,0.09131 -0.653009,0.386029 -1.010152,0.505076 -0.406536,0.135512 -1.69755,-0.161377 -2.020305,0 -0.212959,0.10648 -0.292118,0.398597 -0.505076,0.505076 -0.150585,0.07529 -0.354492,-0.07529 -0.505077,0 -0.212959,0.10648 -0.292117,0.398597 -0.505076,0.505077 -0.273998,0.136999 -1.882105,-0.1382 -2.020305,0 -0.119048,0.119047 0.119048,0.386028 0,0.505076 -0.238095,0.238095 -0.708983,-0.150585 -1.010153,0 -0.212958,0.106479 -0.292117,0.398597 -0.505076,0.505076 -0.404061,0.202031 -1.111168,-0.20203 -1.515229,0 -2.102006,1.051003 0.539945,-0.03487 -0.505076,1.010153 -0.119048,0.119047 -0.386029,-0.119048 -0.505076,0 -0.119048,0.119047 0.119047,0.386028 0,0.505076 -0.252538,0.252538 -1.262691,-0.252538 -1.515229,0 -0.119048,0.119048 0.119048,0.386029 0,0.505076 -0.119048,0.119048 -0.354492,-0.07529 -0.505076,0 -0.212959,0.10648 -0.292118,0.398597 -0.505077,0.505077 -0.301169,0.150584 -0.772057,-0.238096 -1.010152,0 -0.309397,0.309396 -0.42998,1.321838 -1.010153,1.515228 -0.0023,7.64e-4 -1.514746,-4.82e-4 -1.515229,0 -0.238095,0.238096 0.150585,0.708984 0,1.010153 -0.45985,0.9197 -0.38314,0.296072 -1.010152,0.505076 -0.357143,0.119048 -0.696918,0.296253 -1.010153,0.505077 -0.198107,0.132071 -0.336717,0.336717 -0.505076,0.505076 0,0.168359 0.119048,0.386028 0,0.505076 -0.266198,0.266199 -0.696917,0.296253 -1.010152,0.505076 -0.396215,0.264143 -0.673435,0.673435 -1.010153,1.010153 -0.673435,0.673435 -1.34687,1.34687 -2.020305,2.020305 -0.168359,0.168359 -0.336718,0.336718 -0.505076,0.505076 -0.168359,0.168359 -0.292118,0.398597 -0.505077,0.505077 -0.150584,0.07529 -0.354491,-0.07529 -0.505076,0 -0.212959,0.106479 -0.306969,0.373004 -0.505076,0.505076 -0.313235,0.208823 -0.696918,0.296253 -1.010153,0.505076 -0.594321,0.396215 -0.9438,1.086657 -1.515229,1.515229 -0.492139,0.369105 -1.206261,0.392217 -1.515228,1.010152 -0.150585,0.30117 0.150584,0.708984 0,1.010153 -0.386782,0.773564 -0.900055,0.394978 -1.515229,1.010153 -0.266199,0.266198 -0.296253,0.696917 -0.505076,1.010152 -0.132072,0.198107 -0.373005,0.306969 -0.505077,0.505076 -0.208823,0.313235 -0.296253,0.696918 -0.505076,1.010153 -0.132071,0.198107 -0.336717,0.336717 -0.505076,0.505076 -0.505077,0.505076 -1.010153,1.010153 -1.515229,1.515229 -0.168359,0.168359 -0.398597,0.292117 -0.505076,0.505076 -0.150585,0.30117 0.238095,0.772058 0,1.010153 -0.266199,0.266198 -0.696918,0.296253 -1.010153,0.505076 -0.853111,0.568741 -0.980994,1.72403 -1.515229,2.525381 -0.773563,1.160346 -0.288498,-0.216577 -1.515229,1.010153 -0.266198,0.266199 -0.296252,0.696919 -0.505076,1.010149 -0.770512,1.15577 -0.399803,-0.31582 -1.010152,1.51523 -0.05324,0.15972 0.07529,0.35449 0,0.50508 -0.10648,0.21296 -0.373005,0.30697 -0.505077,0.50507 -0.208823,0.31324 -0.296253,0.69692 -0.505076,1.01016 -0.132071,0.1981 -0.336717,0.33671 -0.505076,0.50507 -1.113704,1.11371 -2.143072,2.17218 -3.535534,3.03046 1.072679,-2.6817 0.103513,-2.52538 1.515229,-2.52538 0.168358,0 0.386028,0.11905 0.505076,0 0.238095,-0.2381 -0.106479,-0.69071 0,-1.01015 0.575693,-1.72708 0.418928,-0.37586 1.515229,-2.02031 0.146628,-0.21994 -0.133304,-1.24862 0,-1.51523 0.106479,-0.21296 0.398597,-0.29211 0.505076,-0.50507 0.07529,-0.15059 0,-0.33672 0,-0.505079 0,-0.336717 -0.150585,-0.708983 0,-1.010153 0.303046,-0.606091 1.212183,-0.909137 1.515229,-1.515228 0.149003,-0.298006 -0.115803,-1.167821 0,-1.515229 0.119048,-0.357143 0.386029,-0.65301 0.505076,-1.010153 0.10648,-0.319438 -0.238095,-0.772057 0,-1.010152 0.266199,-0.266199 0.743954,-0.238878 1.010153,-0.505077 0.103256,-0.103256 -0.10013,-1.31497 0,-1.515228 0.106479,-0.212959 0.398597,-0.292118 0.505076,-0.505077 0.149003,-0.298005 -0.115803,-1.167821 0,-1.515228 0.610349,-1.831049 0.239641,-0.359461 1.010153,-1.515229 0.208823,-0.313235 0.296252,-0.696918 0.505076,-1.010153 0.396214,-0.594321 1.119014,-0.920907 1.515229,-1.515229 0.186777,-0.280166 -0.10648,-0.690714 0,-1.010152 0.119047,-0.357143 0.386028,-0.65301 0.505076,-1.010153 0.05324,-0.159719 -0.07529,-0.354491 0,-0.505076 0.106479,-0.212959 0.373005,-0.306969 0.505076,-0.505076 0.208824,-0.313235 0.296253,-0.696918 0.505076,-1.010153 0.264143,-0.396214 0.797194,-0.584235 1.010153,-1.010152 0.07529,-0.150585 -0.07529,-0.354492 0,-0.505077 1.675127,-1.675127 -0.238095,0.476191 0.505076,-1.010152 0.212959,-0.425918 0.74601,-0.613938 1.010153,-1.010153 0.208823,-0.313235 0.336717,-0.673435 0.505076,-1.010152 0.168359,-0.336718 0.386029,-0.65301 0.505076,-1.010153 0.05324,-0.159719 -0.07529,-0.354491 0,-0.505076 0.212959,-0.425918 0.797194,-0.584235 1.010153,-1.010153 0.505076,-1.010152 -1.010153,0 0,-1.515228 0.03135,-1.422163 1.138767,-0.128615 1.515229,-0.505077 0.119047,-0.119047 -0.07529,-0.354491 0,-0.505076 0.106479,-0.212959 0.336717,-0.336718 0.505076,-0.505076 0.336718,-0.336718 0.673435,-0.673435 1.010153,-1.010153 0.168358,-0.168359 0.373004,-0.306969 0.505076,-0.505076 0.208823,-0.313235 0.386028,-0.65301 0.505076,-1.010153 0.10648,-0.319438 -0.186777,-0.729986 0,-1.010152 1.816501,-2.724752 0.157209,0.347867 2.020305,-1.515229 0.119048,-0.119048 0,-0.336718 0,-0.505076 0.168359,-0.168359 0.306969,-0.373005 0.505076,-0.505077 0.313235,-0.208823 0.743954,-0.238877 1.010153,-0.505076 1.22673,-1.22673 -0.150193,-0.741665 1.010153,-1.515229 0.313235,-0.208823 0.696917,-0.296253 1.010152,-0.505076 0.396215,-0.264143 0.613938,-0.746009 1.010153,-1.010152 0.313235,-0.208824 0.708983,-0.2792 1.010152,-0.505077 0.571429,-0.428571 0.920907,-1.119014 1.515229,-1.515229 0.313235,-0.208823 0.696918,-0.296252 1.010153,-0.505076 0.198107,-0.132071 0.306969,-0.373005 0.505076,-0.505076 0.313235,-0.208823 0.708983,-0.279199 1.010152,-0.505076 0.571429,-0.428572 0.920908,-1.119015 1.515229,-1.515229 2.205943,-1.470629 -0.166482,0.223853 2.020305,-0.505076 0.451754,-0.150585 0.613938,-0.74601 1.010153,-1.010153 0.313235,-0.208823 0.660617,-0.365262 1.010152,-0.505076 0.494319,-0.197728 1.089311,-0.185638 1.515229,-0.505077 0.30117,-0.225877 0.191841,-0.801329 0.505076,-1.010152 0.505077,-0.336718 1.010153,0.168359 1.515229,0 0.357143,-0.119048 0.65301,-0.386029 1.010153,-0.505076 0.159719,-0.05324 0.345357,0.05324 0.505076,0 0.357143,-0.119048 0.644931,-0.413771 1.010153,-0.505077 0.326664,-0.08167 0.690714,0.10648 1.010152,0 0.225877,-0.07529 0.292118,-0.398596 0.505076,-0.505076 0.150585,-0.07529 0.336718,0 0.505077,0 0.336717,0 0.683488,0.08167 1.010152,0 0.365222,-0.0913 0.65301,-0.386029 1.010153,-0.505076 0.159719,-0.05324 0.354491,0.07529 0.505076,0 0.212959,-0.10648 0.279199,-0.429784 0.505076,-0.505076 0.319439,-0.10648 0.683489,0.08167 1.010153,0 0.730443,-0.182611 1.289862,-0.827542 2.020305,-1.010153 0.792277,-0.198069 1.733105,0.198069 2.525381,0 0.365222,-0.0913 0.644932,-0.413771 1.010153,-0.505076 0.326664,-0.08167 0.683489,0.08167 1.010152,0 0.365222,-0.09131 0.644932,-0.413771 1.010153,-0.505077 0.653328,-0.163332 1.366977,0.163332 2.020305,0 0.365222,-0.0913 0.65301,-0.386028 1.010153,-0.505076 0.159719,-0.05324 0.341744,0.04083 0.505076,0 0.516501,-0.129125 0.99317,-0.400664 1.515229,-0.505076 0.330178,-0.06604 0.683488,0.08167 1.010152,0 0.365222,-0.0913 0.644931,-0.413771 1.010153,-0.505076 0.326664,-0.08167 0.673435,0 1.010152,0 0.841794,0 1.699935,0.165089 2.525382,0 0.369151,-0.07383 0.641001,-0.431246 1.010152,-0.505077 0.495268,-0.09905 1.019961,0.09905 1.515229,0 0.369151,-0.07383 0.660617,-0.365262 1.010153,-0.505076 3.662099,-1.464839 -0.172937,0.03459 2.525379,-0.505076 0.52206,-0.104412 0.99317,-0.400665 1.51523,-0.505076 0.33018,-0.06604 0.67344,0 1.01015,0 0.59933,0 3.55043,0.09804 4.04061,0 0.36915,-0.07383 0.69692,-0.296253 1.01016,-0.505077 0.1981,-0.132071 0.2716,-0.458382 0.50507,-0.505076 0.66036,-0.132071 1.35604,0.110712 2.02031,0 0.37134,-0.06189 0.64493,-0.413771 1.01015,-0.505076 0.32666,-0.08167 0.67344,0 1.01015,0 0.50508,0 1.01016,0 1.51523,0 0.67344,0 1.34687,0 2.02031,0 0.33671,0 0.67997,0.06603 1.01015,0 0.52206,-0.104412 0.99317,-0.400665 1.51523,-0.505077 0.33018,-0.06603 0.68349,0.08167 1.01015,0 0.36522,-0.0913 0.64493,-0.41377 1.01015,-0.505076 0.32667,-0.08167 0.67344,0 1.01016,0 0.84179,0 1.69993,0.16509 2.52538,0 0.36915,-0.07383 0.641,-0.431246 1.01015,-0.505076 0.97349,-0.194698 2.56058,0.194991 3.53553,0 2.79158,-0.558316 0.62972,-0.505076 2.02031,-0.505076 0.37076,0 2.85437,0.08804 3.03046,0 0.21295,-0.10648 0.29211,-0.398597 0.50507,-0.505077 0.18409,-0.09204 2.23436,0 2.52538,0 1.51523,0 3.03046,0 4.54569,0 5.7242,0 11.4484,0 17.17259,0 4.88241,0 9.76481,0 14.64722,0 1.34687,0 2.69374,0 4.04061,0 0.84179,0 1.69993,-0.165089 2.52538,0 0.36915,0.07383 0.641,0.431246 1.01015,0.505077 1.29507,0.259013 2.74554,-0.259014 4.04061,0 0.36915,0.07383 0.63881,0.443186 1.01015,0.505076 2.35702,0.392837 1.47314,-0.294628 3.53554,0 0.68718,0.09817 1.33312,0.406907 2.0203,0.505076 1.48493,0.212132 3.06076,-0.212132 4.54569,0 0.52704,0.07529 1.01015,0.336718 1.51523,0.505076 0.67343,0 1.35363,-0.09524 2.0203,0 1.02765,-0.175422 1.63635,0.832346 2.52538,1.010153 0.82545,0.165089 1.70872,-0.204165 2.52538,0 0.73045,0.182611 1.30602,0.772057 2.02031,1.010153 0.15972,0.05324 0.33672,0 0.50508,0 0.50507,0 1.01015,0 1.51522,0 0.33672,0 0.67998,-0.06604 1.01016,0 1.04411,0.208823 1.99745,0.751902 3.03045,1.010152 0.16334,0.04083 0.34536,-0.05324 0.50508,0 0.35714,0.119048 0.64493,0.413771 1.01015,0.505076 0.32667,0.08167 0.67344,0 1.01016,0 0.33671,0.168359 0.64493,0.413771 1.01015,0.505077 0.48999,0.122499 1.03607,-0.15972 1.51523,0 2.05209,0.68403 -0.0353,0.28189 2.0203,1.515228 4.10098,2.460585 0.21566,-0.09647 2.02031,0.505077 0.35714,0.119047 0.67343,0.336717 1.01015,0.505076 0.67344,0.336718 1.34687,0.673435 2.02031,1.010153 0.33671,0.168358 0.653,0.386028 1.01015,0.505076 0.15972,0.05324 0.35449,-0.07529 0.50507,0 0.21296,0.106479 0.2792,0.429784 0.50508,0.505076 0.31944,0.10648 0.67344,0 1.01015,0 0.87318,0 1.18351,-0.05279 2.02031,0.505076 0.39621,0.264143 0.58423,0.797194 1.01015,1.010153 1.24398,0.621989 -0.45595,-1.466102 1.51523,0.505076 0.11905,0.119048 -0.15059,0.429784 0,0.505076 0.30117,0.150585 0.67343,0 1.01015,0 0.33672,0.336718 0.61394,0.74601 1.01015,1.010153 0.28017,0.186777 0.72999,-0.186777 1.01016,0 0.39621,0.264143 0.58423,0.797194 1.01015,1.010153 0.60234,0.301169 1.38143,-0.212959 2.0203,0 0.22588,0.07529 0.33672,0.336717 0.50508,0.505076 0.33672,0 0.68349,-0.08167 1.01015,0 0.91416,-0.304424 0.93936,0.818194 1.51523,1.010152 2.29925,0 0.0289,-0.238095 1.51523,0.505077 0.15059,0.07529 0.33672,0 0.50508,0 0.33671,0 0.68349,-0.08167 1.01015,0 0.36522,0.0913 0.65301,0.386028 1.01015,0.505076 0.15972,0.05324 0.34536,-0.05324 0.50508,0 0.35714,0.119048 0.64493,0.413771 1.01015,0.505076 0.32667,0.08167 0.69072,-0.106479 1.01015,0 0.22588,0.07529 0.33672,0.336718 0.50508,0.505076 0.33672,0.168359 0.64493,0.413771 1.01015,0.505077 0.50283,0.125706 2.7167,-0.156878 3.03046,0 0.42592,0.212959 0.58424,0.797193 1.01015,1.010152 0.31067,0.155335 2.20313,-0.161129 2.52538,0 0.21296,0.10648 0.2792,0.429784 0.50508,0.505077 0.62728,0.209092 1.8613,-0.166021 2.52538,0 0.36522,0.0913 0.64493,0.41377 1.01015,0.505076 0.65333,0.163332 1.38143,-0.212959 2.02031,0 0.22588,0.07529 0.29212,0.398597 0.50508,0.505076 0.32814,0.164074 2.7023,-0.164074 3.03045,0 0.21296,0.10648 0.29212,0.398597 0.50508,0.505076 0.3212,0.1606 2.10707,-0.139438 2.52538,0 0.22588,0.07529 0.2792,0.429784 0.50508,0.505077 0.31944,0.106479 0.68349,-0.08167 1.01015,0 0.36522,0.0913 0.66062,0.365262 1.01015,0.505076 0.49432,0.197727 0.99873,0.375951 1.51523,0.505076 0.43211,0.108028 2.02055,0 2.52538,0 0.16836,0 0.35449,-0.07529 0.50508,0 0.21296,0.10648 0.29212,0.398597 0.50508,0.505076 0.15058,0.07529 0.35449,-0.07529 0.50507,0 0.21296,0.10648 0.2792,0.429784 0.50508,0.505077 0.31944,0.106479 0.70898,-0.150585 1.01015,0 0.15058,0.07529 -0.11905,0.386028 0,0.505076 0.11905,0.119048 0.34536,-0.05324 0.50508,0 0.35714,0.119048 0.65301,0.386029 1.01015,0.505076 0.5367,0.1789 1.4836,-0.1789 2.0203,0 0.22588,0.07529 0.29212,0.398597 0.50508,0.505077 0.22475,0.112373 1.78929,-0.07701 2.02031,0 0.22587,0.07529 0.29211,0.398596 0.50507,0.505076 0.15059,0.07529 0.35449,-0.07529 0.50508,0 0.42592,0.212959 0.5584,0.859568 1.01015,1.010152 0.63888,0.212959 1.38143,-0.212958 2.02031,0 0.86682,0.288942 0.6484,1.731363 1.51522,2.020305 0.40667,0.135557 2.74047,-0.144995 3.03046,0 0.21296,0.10648 0.29212,0.398597 0.50508,0.505077 0.30117,0.150584 0.77206,-0.238096 1.01015,0 0.3094,0.309396 0.42998,1.321838 1.01015,1.515229 0.63888,0.212958 1.41797,-0.30117 2.02031,0 0.42592,0.212958 0.6292,0.724438 1.01015,1.010152 0.30117,0.225877 0.69692,0.296253 1.01015,0.505076 0.92416,0.616105 0.0504,0.643943 1.51523,1.010153 0.32667,0.08167 0.68349,-0.08167 1.01015,0 0.73045,0.182611 1.30602,0.772057 2.02031,1.010152 0.15972,0.05324 0.35449,-0.07529 0.50508,0 0.21296,0.10648 0.30697,0.373005 0.50507,0.505077 0.31324,0.208823 0.69692,0.296253 1.01016,0.505076 0.20749,0.138333 1.37689,1.307729 1.51522,1.515229 0.20883,0.313235 0.29626,0.696917 0.50508,1.010152 0.67685,1.015281 0.36077,0.120257 1.51523,0.505077 0.22588,0.07529 0.29212,0.398596 0.50508,0.505076 0.15058,0.07529 0.38602,-0.119048 0.50507,0 0.2381,0.238095 -0.23809,0.772057 0,1.010152 0.2381,0.238096 0.77206,-0.238095 1.01015,0 0.11905,0.119048 -0.0753,0.354492 0,0.505077 1.05101,2.102006 -0.0349,-0.539945 1.01016,0.505076 0.11904,0.119048 -0.0753,0.354492 0,0.505076 0.10648,0.212959 0.39859,0.292118 0.50507,0.505077 0.15059,0.301169 -0.23809,0.772057 0,1.010152 0.11905,0.119048 0.38603,-0.119048 0.50508,0 0.11905,0.119048 -0.11905,0.386029 0,0.505076 0.11905,0.119048 0.38603,-0.119047 0.50508,0 0.23809,0.238096 -0.15059,0.708984 0,1.010153 1.051,2.102006 -0.0349,-0.539945 1.01015,0.505076 0.0203,0.02032 0,1.834823 0,2.020305 0,1.184494 -0.11905,-0.238095 0.50507,1.010153 0.10013,0.200258 -0.10325,1.411973 0,1.515229 0.11905,0.119047 0.3545,-0.07529 0.50508,0 0.21296,0.106479 0.29212,0.398596 0.50508,0.505076 0.15058,0.07529 0.38603,-0.119048 0.50507,0 0.67344,0.673435 -0.84179,0.505076 0.50508,0.505076"
       id="path3839"
       inkscape:connector-curvature="0"
       transform="translate(206.54535,845.10663)" />
    <text
       xml:space="preserve"
       style="font-size:20px;font-style:normal;font-weight:normal;line-height:125%;letter-spacing:0px;word-spacing:0px;fill:#000000;fill-opacity:1;stroke:none;font-family:Sans"
       x="367.15961"
       y="904.87988"
       id="text3841"
       sodipodi:linespacing="125%"><tspan
         sodipodi:role="line"
         id="tspan3843"
         x="367.15961"
         y="904.87988">j</tspan></text>
    <path
       style="fill:none;stroke:#000000;stroke-width:3;stroke-linecap:butt;stroke-linejoin:miter;stroke-opacity:1;stroke-miterlimit:4;stroke-dasharray:none"
       d="M 141.92643,107.75549 141.42136,90.582898"
       id="path3845"
       inkscape:connector-curvature="0"
       transform="translate(206.54535,845.10663)" />
  </g>
</svg>
